<svg width="741" height="656" viewBox="0 0 741 656" fill="none" xmlns="http://www.w3.org/2000/svg">
<g clip-path="url(#clip0_6746_7597)">
<path d="M-487.937 172.602C-474.208 161.853 -417.848 233.84 -404.111 223.085C-390.374 212.331 -446.741 140.349 -433.004 129.594C-419.268 118.839 -362.915 190.833 -349.178 180.078C-335.441 169.323 -391.809 97.3415 -378.072 86.5867C-364.335 75.8319 -307.982 147.825 -294.246 137.07C-280.509 126.316 -336.876 54.3339 -323.139 43.5792C-309.402 32.8244 -253.05 104.817 -239.313 94.0627C-225.576 83.308 -281.943 11.3264 -268.214 0.57738C-254.484 -10.1716 -198.117 61.8099 -184.358 51.0379C-170.599 40.2658 -226.989 -31.6984 -213.259 -42.4474C-199.53 -53.1965 -143.155 18.7794 -129.455 8.05339C-115.755 -2.67257 -172.086 -74.6829 -158.312 -85.4665C-144.538 -96.2501 -88.2225 -24.2282 -74.4931 -34.9772C-60.7636 -45.7262 -117.116 -117.719 -103.387 -128.468C-89.6572 -139.217 -33.2973 -67.23 -19.5605 -77.9847C-5.82365 -88.7395 -62.1909 -160.721 -48.4615 -171.47C-34.732 -182.219 21.6353 -110.238 35.3721 -120.992C49.109 -131.747 -7.25835 -203.729 6.47848 -214.483C20.2153 -225.238 76.5679 -153.245 90.3047 -164C104.042 -174.755 47.6743 -246.736 61.4111 -257.491C75.1479 -268.246 131.5 -196.253 145.237 -207.007C158.974 -217.762 102.607 -289.744 116.344 -300.499C130.081 -311.253 186.433 -239.26 200.17 -250.015C213.907 -260.77 157.547 -332.757 171.276 -343.506C185.006 -354.255 241.373 -282.273 255.103 -293.022C268.832 -303.771 212.479 -375.765 226.209 -386.514C239.938 -397.263 296.306 -325.281 310.043 -336.036C323.779 -346.791 267.412 -418.772 281.149 -429.527C294.886 -440.282 351.246 -368.294 364.975 -379.043C378.705 -389.792 322.352 -461.785 336.089 -472.54C349.826 -483.295 406.186 -411.308 419.922 -422.062C433.659 -432.817 377.299 -504.804 391.029 -515.553" stroke="#A1D634" stroke-opacity="0.3" stroke-width="0.57971" stroke-miterlimit="10"/>
<path d="M-372.257 320.356C-358.528 309.607 -302.168 381.595 -288.431 370.84C-274.694 360.085 -331.062 288.104 -317.325 277.349C-303.588 266.594 -247.235 338.587 -233.498 327.832C-219.762 317.078 -276.129 245.096 -262.392 234.341C-248.655 223.587 -192.303 295.58 -178.566 284.825C-164.829 274.07 -221.196 202.089 -207.46 191.334C-193.723 180.579 -137.37 252.572 -123.633 241.817C-109.896 231.063 -166.264 159.081 -152.534 148.332C-138.805 137.583 -82.4375 209.565 -68.6786 198.793C-54.9197 188.02 -111.309 116.056 -97.5796 105.307C-83.8501 94.5582 -27.4755 166.534 -13.7754 155.808C-0.0753831 145.082 -56.4059 73.0717 -42.6323 62.2881C-28.8587 51.5046 27.4571 123.526 41.1866 112.777C54.9161 102.028 -1.43648 30.0353 12.293 19.2863C26.0225 8.53732 82.3824 80.5247 96.1192 69.7699C109.856 59.0151 53.4887 -12.9664 67.2182 -23.7154C80.9477 -34.4644 137.315 37.5171 151.052 26.7623C164.789 16.0076 108.421 -55.974 122.158 -66.7287C135.895 -77.4835 192.248 -5.49043 205.984 -16.2452C219.721 -27 163.354 -98.9815 177.091 -109.736C190.828 -120.491 247.18 -48.498 260.917 -59.2527C274.654 -70.0075 218.287 -141.989 232.023 -152.744C245.76 -163.499 302.113 -91.5055 315.85 -102.26C329.586 -113.015 273.227 -185.002 286.956 -195.751C300.685 -206.5 357.053 -134.519 370.782 -145.268C384.512 -156.017 328.159 -228.01 341.889 -238.759C355.618 -249.508 411.985 -177.526 425.722 -188.281C439.459 -199.036 383.092 -271.017 396.829 -281.772C410.565 -292.527 466.925 -220.54 480.655 -231.289C494.384 -242.038 438.032 -314.031 451.768 -324.786C465.505 -335.54 521.865 -263.553 535.602 -274.308C549.339 -285.063 492.979 -357.05 506.708 -367.799" stroke="#A1D634" stroke-opacity="0.3" stroke-width="0.57971" stroke-miterlimit="10"/>
<path d="M-169.045 579.915C-155.316 569.166 -98.956 641.153 -85.2192 630.399C-71.4824 619.644 -127.85 547.662 -114.113 536.907C-100.376 526.153 -44.0234 598.146 -30.2866 587.391C-16.5497 576.636 -72.917 504.655 -59.1802 493.9C-45.4434 483.145 10.9092 555.138 24.646 544.384C38.3829 533.629 -17.9844 461.647 -4.2476 450.892C9.48923 440.138 65.8418 512.131 79.5786 501.376C93.3155 490.621 36.9482 418.64 50.6777 407.891C64.4071 397.142 120.774 469.123 134.533 458.351C148.292 447.579 91.9029 375.615 105.632 364.866C119.362 354.117 175.736 426.093 189.436 415.367C203.137 404.641 146.806 332.63 160.58 321.847C174.353 311.063 230.669 383.085 244.399 372.336C258.128 361.587 201.775 289.594 215.505 278.845C229.234 268.096 285.594 340.083 299.331 329.328C313.068 318.574 256.701 246.592 270.43 235.843C284.16 225.094 340.527 297.076 354.264 286.321C368.001 275.566 311.633 203.585 325.37 192.83C339.107 182.075 395.46 254.068 409.196 243.313C422.933 232.559 366.566 160.577 380.303 149.822C394.04 139.068 450.392 211.061 464.129 200.306C477.866 189.551 421.499 117.569 435.235 106.815C448.972 96.06 505.325 168.053 519.062 157.298C532.798 146.544 476.438 74.5562 490.168 63.8072C503.897 53.0582 560.265 125.04 573.994 114.291C587.724 103.542 531.371 31.5487 545.101 20.7997C558.83 10.0507 615.197 82.0322 628.934 71.2774C642.671 60.5227 586.304 -11.4589 600.04 -22.2137C613.777 -32.9684 670.137 39.0189 683.867 28.2699C697.596 17.5209 641.244 -54.4722 654.98 -65.2269C668.717 -75.9817 725.077 -3.99442 738.814 -14.7492C752.551 -25.504 696.191 -97.4913 709.92 -108.24" stroke="#A1D634" stroke-opacity="0.3" stroke-width="0.57971" stroke-miterlimit="10"/>
<path d="M121.701 951.278C135.43 940.529 191.79 1012.52 205.527 1001.76C219.264 991.006 162.896 919.025 176.633 908.27C190.37 897.515 246.723 969.508 260.46 958.754C274.196 947.999 217.829 876.017 231.566 865.262C245.303 854.508 301.655 926.501 315.392 915.746C329.129 904.991 272.762 833.01 286.498 822.255C300.235 811.5 356.588 883.493 370.325 872.739C384.062 861.984 327.694 790.002 341.424 779.253C355.153 768.504 411.521 840.486 425.279 829.714C439.038 818.942 382.649 746.977 396.378 736.228C410.108 725.479 466.483 797.455 480.183 786.729C493.883 776.003 437.552 703.993 451.326 693.209C465.099 682.426 521.415 754.448 535.145 743.699C548.874 732.95 492.522 660.956 506.251 650.207C519.98 639.458 576.34 711.446 590.077 700.691C603.814 689.936 547.447 617.955 561.176 607.206C574.906 596.457 631.273 668.438 645.01 657.683C658.747 646.929 602.379 574.947 616.116 564.192C629.853 553.438 686.206 625.431 699.942 614.676C713.679 603.921 657.312 531.94 671.049 521.185C684.786 510.43 741.138 582.423 754.875 571.668C768.612 560.914 712.245 488.932 725.981 478.177C739.718 467.423 796.071 539.416 809.808 528.661C823.544 517.906 767.185 445.919 780.914 435.17C794.643 424.421 851.011 496.402 864.74 485.653C878.47 474.904 822.117 402.911 835.847 392.162C849.576 381.413 905.943 453.395 919.68 442.64C933.417 431.885 877.05 359.904 890.787 349.149C904.523 338.394 960.883 410.381 974.613 399.632C988.342 388.883 931.99 316.89 945.726 306.136C959.463 295.381 1015.82 367.368 1029.56 356.613C1043.3 345.859 986.937 273.871 1000.67 263.122" stroke="#A1D634" stroke-opacity="0.3" stroke-width="0.57971" stroke-miterlimit="10"/>
<path d="M-431.577 244.589C-417.847 233.84 -361.487 305.828 -347.75 295.073C-334.014 284.318 -390.381 212.336 -376.644 201.582C-362.907 190.827 -306.555 262.82 -292.818 252.065C-279.081 241.31 -335.448 169.329 -321.711 158.574C-307.975 147.819 -251.622 219.812 -237.885 209.058C-224.148 198.303 -280.516 126.321 -266.779 115.567C-253.042 104.812 -196.689 176.805 -182.953 166.05C-169.216 155.295 -225.583 83.3138 -211.854 72.5648C-198.124 61.8158 -141.757 133.797 -127.998 123.025C-114.239 112.253 -170.628 40.289 -156.899 29.54C-143.169 18.791 -86.7948 90.7668 -73.0948 80.0408C-59.3947 69.3149 -115.725 -2.69552 -101.952 -13.4791C-88.178 -24.2627 -31.8622 47.7592 -18.1327 37.0102C-4.40325 26.2612 -60.7558 -45.7319 -47.0263 -56.4809C-33.2969 -67.2299 23.063 4.75746 36.7999 -5.99731C50.5367 -16.7521 -5.83059 -88.7336 7.89888 -99.4826C21.6284 -110.232 77.9957 -38.2501 91.7325 -49.0049C105.469 -59.7596 49.102 -131.741 62.8388 -142.496C76.5757 -153.251 132.928 -81.2576 146.665 -92.0124C160.402 -102.767 104.035 -174.749 117.771 -185.504C131.508 -196.258 187.861 -124.265 201.598 -135.02C215.334 -145.775 158.967 -217.756 172.704 -228.511C186.441 -239.266 242.793 -167.273 256.53 -178.028C270.267 -188.782 213.907 -260.77 227.637 -271.519C241.366 -282.268 297.733 -210.286 311.463 -221.035C325.192 -231.784 268.84 -303.777 282.569 -314.526C296.299 -325.275 352.666 -253.294 366.403 -264.048C380.14 -274.803 323.772 -346.785 337.509 -357.539C351.246 -368.294 407.606 -296.307 421.335 -307.056C435.065 -317.805 378.712 -389.798 392.449 -400.553C406.186 -411.307 462.546 -339.32 476.283 -350.075C490.02 -360.83 433.66 -432.817 447.389 -443.566" stroke="#A1D634" stroke-opacity="0.3" stroke-width="0.57971" stroke-miterlimit="10"/>
<path d="M-228.364 504.148C-214.635 493.399 -158.275 565.386 -144.538 554.632C-130.801 543.877 -187.168 471.895 -173.432 461.14C-159.695 450.386 -103.342 522.379 -89.6054 511.624C-75.8686 500.869 -132.236 428.888 -118.499 418.133C-104.762 407.378 -48.4096 479.371 -34.6728 468.616C-20.936 457.862 -77.3033 385.88 -63.5664 375.125C-49.8296 364.371 6.52296 436.364 20.2598 425.609C33.9966 414.854 -22.3707 342.873 -8.6412 332.124C5.08828 321.375 61.4556 393.356 75.2145 382.584C88.9734 371.812 32.584 299.848 46.3135 289.099C60.043 278.35 116.418 350.325 130.118 339.6C143.818 328.874 87.4872 256.863 101.261 246.08C115.034 235.296 171.35 307.318 185.08 296.569C198.809 285.82 142.457 213.827 156.186 203.078C169.916 192.329 226.275 264.316 240.012 253.561C253.749 242.807 197.382 170.825 211.111 160.076C224.841 149.327 281.208 221.309 294.945 210.554C308.682 199.799 252.314 127.818 266.051 117.063C279.788 106.308 336.141 178.301 349.877 167.546C363.614 156.792 307.247 84.81 320.984 74.0552C334.721 63.3004 391.073 135.294 404.81 124.539C418.547 113.784 362.18 41.8024 375.916 31.0476C389.653 20.2929 446.006 92.286 459.743 81.5312C473.48 70.7764 417.12 -1.21089 430.849 -11.9599C444.579 -22.7089 500.946 49.2727 514.675 38.5236C528.405 27.7746 472.052 -44.2184 485.782 -54.9674C499.511 -65.7164 555.878 6.26512 569.615 -4.48965C583.352 -15.2444 526.985 -87.226 540.722 -97.9808C554.458 -108.736 610.818 -36.7482 624.548 -47.4972C638.277 -58.2462 581.925 -130.239 595.662 -140.994C609.398 -151.749 665.758 -79.7615 679.495 -90.5163C693.232 -101.271 636.872 -173.258 650.602 -184.007" stroke="#A1D634" stroke-opacity="0.3" stroke-width="0.57971" stroke-miterlimit="10"/>
<path d="M62.3809 875.512C76.1103 864.763 132.47 936.75 146.207 925.995C159.944 915.241 103.577 843.259 117.313 832.504C131.05 821.749 187.403 893.742 201.14 882.988C214.877 872.233 158.509 800.251 172.246 789.497C185.983 778.742 242.335 850.735 256.072 839.98C269.809 829.225 213.442 757.244 227.179 746.489C240.915 735.734 297.268 807.727 311.005 796.973C324.742 786.218 268.374 714.236 282.104 703.487C295.833 692.738 352.201 764.72 365.96 753.948C379.718 743.176 323.329 671.211 337.059 660.462C350.788 649.713 407.163 721.689 420.863 710.963C434.563 700.237 378.232 628.227 392.006 617.443C405.78 606.66 462.095 678.682 475.825 667.933C489.554 657.184 433.202 585.191 446.931 574.442C460.661 563.693 517.021 635.68 530.757 624.925C544.494 614.17 488.127 542.189 501.856 531.44C515.586 520.691 571.953 592.672 585.69 581.918C599.427 571.163 543.06 499.181 556.796 488.427C570.533 477.672 626.886 549.665 640.623 538.91C654.359 528.155 597.992 456.174 611.729 445.419C625.466 434.664 681.818 506.657 695.555 495.903C709.292 485.148 652.925 413.166 666.662 402.411C680.398 391.657 736.751 463.65 750.488 452.895C764.225 442.14 707.865 370.153 721.594 359.404C735.324 348.655 791.691 420.636 805.42 409.887C819.15 399.138 762.797 327.145 776.527 316.396C790.256 305.647 846.624 377.629 860.36 366.874C874.097 356.119 817.73 284.138 831.467 273.383C845.204 262.628 901.564 334.616 915.293 323.867C929.022 313.118 872.67 241.125 886.407 230.37C900.144 219.615 956.504 291.602 970.24 280.847C983.977 270.093 927.617 198.105 941.347 187.356" stroke="#A1D634" stroke-opacity="0.3" stroke-width="0.57971" stroke-miterlimit="10"/>
<path d="M-315.898 392.344C-302.169 381.595 -245.809 453.582 -232.072 442.827C-218.335 432.073 -274.703 360.091 -260.966 349.336C-247.229 338.581 -190.876 410.575 -177.14 399.82C-163.403 389.065 -219.77 317.083 -206.033 306.329C-192.296 295.574 -135.944 367.567 -122.207 356.812C-108.47 346.057 -164.837 274.076 -151.101 263.321C-137.364 252.566 -81.0112 324.559 -67.2744 313.805C-53.5376 303.05 -109.905 231.068 -96.1754 220.319C-82.4459 209.57 -26.0786 281.552 -12.3197 270.78C1.4392 260.008 -54.9502 188.044 -41.2207 177.294C-27.4912 166.545 28.8834 238.521 42.5835 227.795C56.2835 217.069 -0.0469999 145.059 13.7266 134.275C27.5002 123.492 83.816 195.514 97.5455 184.765C111.275 174.016 54.9224 102.023 68.6519 91.2736C82.3814 80.5246 138.741 152.512 152.478 141.757C166.215 131.002 109.848 59.0209 123.577 48.2719C137.307 37.5229 193.674 109.504 207.411 98.7496C221.148 87.9949 164.78 16.0133 178.517 5.25857C192.254 -5.4962 248.606 66.4969 262.343 55.7421C276.08 44.9873 219.713 -26.9942 233.45 -37.749C247.187 -48.5038 303.539 23.4893 317.276 12.7346C331.013 1.97981 274.645 -70.0018 288.382 -80.7566C302.119 -91.5113 358.472 -19.5182 372.209 -30.273C385.945 -41.0278 329.585 -113.015 343.315 -123.764C357.044 -134.513 413.412 -62.5315 427.141 -73.2805C440.871 -84.0296 384.518 -156.023 398.247 -166.772C411.977 -177.521 468.344 -105.539 482.081 -116.294C495.818 -127.049 439.451 -199.03 453.187 -209.785C466.924 -220.54 523.284 -148.552 537.014 -159.301C550.743 -170.05 494.391 -242.043 508.127 -252.798C521.864 -263.553 578.224 -191.566 591.961 -202.32C605.698 -213.075 549.338 -285.063 563.067 -295.812" stroke="#A1D634" stroke-opacity="0.3" stroke-width="0.57971" stroke-miterlimit="10"/>
<path d="M-25.1519 763.706C-11.4224 752.957 44.9375 824.945 58.6744 814.19C72.4112 803.435 16.0439 731.454 29.7808 720.699C43.5176 709.944 99.8702 781.937 113.607 771.182C127.344 760.428 70.9765 688.446 84.7134 677.691C98.4502 666.936 154.803 738.93 168.54 728.175C182.276 717.42 125.909 645.438 139.646 634.684C153.383 623.929 209.735 695.922 223.472 685.167C237.209 674.412 180.842 602.431 194.571 591.682C208.301 580.933 264.668 652.914 278.427 642.142C292.186 631.37 235.796 559.406 249.526 548.657C263.255 537.908 319.63 609.884 333.33 599.158C347.03 588.432 290.7 516.422 304.473 505.638C318.247 494.854 374.563 566.876 388.292 556.127C402.022 545.378 345.669 473.385 359.398 462.636C373.128 451.887 429.488 523.875 443.225 513.12C456.962 502.365 400.594 430.383 414.324 419.634C428.053 408.885 484.42 480.867 498.157 470.112C511.894 459.357 455.527 387.376 469.264 376.621C483 365.866 539.353 437.859 553.09 427.105C566.827 416.35 510.459 344.368 524.196 333.614C537.933 322.859 594.286 394.852 608.022 384.097C621.759 373.342 565.392 301.361 579.129 290.606C592.866 279.851 649.218 351.844 662.955 341.09C676.692 330.335 620.332 258.347 634.061 247.598C647.791 236.849 704.158 308.831 717.888 298.082C731.617 287.333 675.265 215.34 688.994 204.591C702.724 193.842 759.091 265.823 772.828 255.069C786.565 244.314 730.197 172.332 743.934 161.578C757.671 150.823 814.031 222.81 827.76 212.061C841.49 201.312 785.137 129.319 798.874 118.564C812.611 107.81 868.971 179.797 882.708 169.042C896.444 158.287 840.084 86.3 853.814 75.551" stroke="#A1D634" stroke-opacity="0.3" stroke-width="0.57971" stroke-miterlimit="10"/>
<path d="M-112.685 651.902C-98.9556 641.153 -42.5957 713.14 -28.8588 702.386C-15.122 691.631 -71.4893 619.649 -57.7525 608.895C-44.0156 598.14 12.3369 670.133 26.0738 659.378C39.8106 648.623 -16.5567 576.642 -2.81984 565.887C10.917 555.132 67.2696 627.125 81.0064 616.371C94.7432 605.616 38.3759 533.634 52.1128 522.879C65.8496 512.125 122.202 584.118 135.939 573.363C149.676 562.608 93.3085 490.627 107.038 479.878C120.767 469.129 177.135 541.11 190.894 530.338C204.653 519.566 148.263 447.602 161.993 436.853C175.722 426.104 232.097 498.08 245.797 487.354C259.497 476.628 203.166 404.617 216.94 393.834C230.714 383.05 287.029 455.072 300.759 444.323C314.488 433.574 258.136 361.581 271.865 350.832C285.595 340.083 341.955 412.07 355.691 401.316C369.428 390.561 313.061 318.579 326.79 307.83C340.52 297.081 396.887 369.063 410.624 358.308C424.361 347.553 367.994 275.572 381.73 264.817C395.467 254.062 451.82 326.055 465.557 315.3C479.294 304.546 422.926 232.564 436.663 221.809C450.4 211.055 506.752 283.048 520.489 272.293C534.226 261.538 477.859 189.557 491.596 178.802C505.333 168.047 561.685 240.04 575.422 229.285C589.159 218.531 532.799 146.543 546.528 135.794C560.258 125.045 616.625 197.027 630.355 186.278C644.084 175.529 587.731 103.536 601.461 92.7867C615.19 82.0377 671.558 154.019 685.294 143.265C699.031 132.51 642.664 60.5282 656.401 49.7734C670.138 39.0186 726.498 111.006 740.227 100.257C753.957 89.508 697.604 17.5149 711.341 6.76013C725.078 -3.99463 781.438 67.9926 795.174 57.2379C808.911 46.4831 752.551 -25.5042 766.281 -36.2532" stroke="#A1D634" stroke-opacity="0.3" stroke-width="0.57971" stroke-miterlimit="10"/>
<path d="M178.061 1023.27C191.79 1012.52 248.15 1084.5 261.887 1073.75C275.624 1062.99 219.256 991.012 232.993 980.258C246.73 969.503 303.083 1041.5 316.819 1030.74C330.556 1019.99 274.189 948.005 287.926 937.25C301.663 926.495 358.015 998.488 371.752 987.734C385.489 976.979 329.122 904.997 342.858 894.243C356.595 883.488 412.948 955.481 426.685 944.726C440.421 933.971 384.054 861.99 397.784 851.241C411.513 840.492 467.88 912.473 481.639 901.701C495.398 890.929 439.009 818.965 452.738 808.216C466.468 797.467 522.842 869.443 536.542 858.717C550.242 847.991 493.912 775.98 507.686 765.197C521.459 754.413 577.775 826.435 591.504 815.686C605.234 804.937 548.881 732.944 562.611 722.195C576.34 711.446 632.7 783.433 646.437 772.679C660.174 761.924 603.807 689.942 617.536 679.193C631.266 668.444 687.633 740.426 701.37 729.671C715.107 718.916 658.739 646.935 672.476 636.18C686.213 625.425 742.565 697.418 756.302 686.663C770.039 675.909 713.672 603.927 727.409 593.172C741.145 582.418 797.498 654.411 811.235 643.656C824.972 632.901 768.604 560.92 782.341 550.165C796.078 539.41 852.431 611.403 866.168 600.648C879.904 589.894 823.544 517.906 837.274 507.157C851.003 496.408 907.371 568.39 921.1 557.641C934.83 546.892 878.477 474.899 892.206 464.15C905.936 453.401 962.303 525.382 976.04 514.628C989.777 503.873 933.41 431.891 947.146 421.136C960.883 410.382 1017.24 482.369 1030.97 471.62C1044.7 460.871 988.35 388.878 1002.09 378.123C1015.82 367.368 1072.18 439.356 1085.92 428.601C1099.66 417.846 1043.3 345.859 1057.03 335.11" stroke="#A1D634" stroke-opacity="0.3" stroke-width="0.57971" stroke-miterlimit="10"/>
<path d="M-459.791 208.552C-446.061 197.803 -389.701 269.79 -375.964 259.035C-362.227 248.28 -418.595 176.299 -404.858 165.544C-391.121 154.789 -334.769 226.782 -321.032 216.028C-307.295 205.273 -363.662 133.291 -349.925 122.537C-336.188 111.782 -279.836 183.775 -266.099 173.02C-252.362 162.265 -308.73 90.2838 -294.993 79.529C-281.256 68.7742 -224.903 140.767 -211.166 130.013C-197.43 119.258 -253.797 47.2762 -240.067 36.5272C-226.338 25.7782 -169.971 97.7598 -156.212 86.9877C-142.453 76.2157 -198.842 4.25139 -185.113 -6.49762C-171.383 -17.2466 -115.009 54.7292 -101.309 44.0032C-87.6086 33.2773 -143.939 -38.7331 -130.165 -49.5167C-116.392 -60.3003 -60.0761 11.7216 -46.3466 0.972625C-32.6171 -9.77638 -88.9697 -81.7695 -75.2402 -92.5185C-61.5107 -103.267 -5.15083 -31.2801 8.586 -42.0349C22.3228 -52.7897 -34.0445 -124.771 -20.315 -135.52C-6.58552 -146.269 49.7818 -74.2877 63.5186 -85.0425C77.2555 -95.7972 20.8881 -167.779 34.625 -178.534C48.3618 -189.288 104.714 -117.295 118.451 -128.05C132.188 -138.805 75.8208 -210.786 89.5576 -221.541C103.294 -232.296 159.647 -160.303 173.384 -171.058C187.121 -181.812 130.753 -253.794 144.49 -264.549C158.227 -275.303 214.58 -203.31 228.316 -214.065C242.053 -224.82 185.693 -296.807 199.423 -307.556C213.152 -318.305 269.52 -246.324 283.249 -257.073C296.979 -267.822 240.626 -339.815 254.355 -350.564C268.085 -361.313 324.452 -289.331 338.189 -300.086C351.926 -310.841 295.559 -382.822 309.295 -393.577C323.032 -404.332 379.392 -332.344 393.122 -343.093C406.851 -353.842 350.498 -425.836 364.235 -436.59C377.972 -447.345 434.332 -375.358 448.069 -386.113C461.806 -396.867 405.446 -468.855 419.175 -479.604" stroke="#A1D634" stroke-opacity="0.3" stroke-width="0.57971" stroke-miterlimit="10"/>
<path d="M-256.579 468.11C-242.85 457.361 -186.49 529.349 -172.753 518.594C-159.016 507.839 -215.383 435.858 -201.646 425.103C-187.91 414.348 -131.557 486.341 -117.82 475.586C-104.083 464.832 -160.451 392.85 -146.714 382.095C-132.977 371.34 -76.6245 443.334 -62.8877 432.579C-49.1508 421.824 -105.518 349.842 -91.7813 339.088C-78.0445 328.333 -21.6919 400.326 -7.95505 389.571C5.78178 378.816 -50.5855 306.835 -36.856 296.086C-23.1266 285.337 33.2407 357.318 46.9996 346.546C60.7585 335.774 4.36917 263.81 18.0986 253.061C31.8281 242.312 88.2028 314.288 101.903 303.562C115.603 292.836 59.2723 220.826 73.046 210.042C86.8196 199.258 143.135 271.28 156.865 260.531C170.594 249.782 114.242 177.789 127.971 167.04C141.701 156.291 198.061 228.279 211.797 217.524C225.534 206.769 169.167 134.787 182.896 124.038C196.626 113.289 252.993 185.271 266.73 174.516C280.467 163.761 224.1 91.7799 237.836 81.0252C251.573 70.2704 307.926 142.263 321.663 131.509C335.399 120.754 279.032 48.7724 292.769 38.0176C306.506 27.2628 362.858 99.2559 376.595 88.5012C390.332 77.7464 333.965 5.76481 347.702 -4.98996C361.438 -15.7447 417.791 56.2484 431.528 45.4936C445.265 34.7389 388.905 -37.2485 402.634 -47.9975C416.364 -58.7465 472.731 13.2351 486.46 2.48605C500.19 -8.26295 443.837 -80.256 457.567 -91.005C471.296 -101.754 527.664 -29.7725 541.4 -40.5272C555.137 -51.282 498.77 -123.264 512.507 -134.018C526.244 -144.773 582.604 -72.7858 596.333 -83.5348C610.062 -94.2838 553.71 -166.277 567.447 -177.032C581.184 -187.786 637.544 -115.799 651.28 -126.554C665.017 -137.309 608.657 -209.296 622.387 -220.045" stroke="#A1D634" stroke-opacity="0.3" stroke-width="0.57971" stroke-miterlimit="10"/>
<path d="M34.1675 839.473C47.897 828.724 104.257 900.712 117.994 889.957C131.731 879.202 75.3633 807.221 89.1001 796.466C102.837 785.711 159.189 857.704 172.926 846.949C186.663 836.195 130.296 764.213 144.033 753.458C157.77 742.704 214.122 814.697 227.859 803.942C241.596 793.187 185.228 721.206 198.965 710.451C212.702 699.696 269.055 771.689 282.792 760.934C296.528 750.18 240.161 678.198 253.891 667.449C267.62 656.7 323.987 728.682 337.746 717.909C351.505 707.137 295.116 635.173 308.845 624.424C322.575 613.675 378.949 685.651 392.649 674.925C406.349 664.199 350.019 592.189 363.793 581.405C377.566 570.622 433.882 642.643 447.611 631.894C461.341 621.145 404.988 549.152 418.718 538.403C432.447 527.654 488.807 599.642 502.544 588.887C516.281 578.132 459.914 506.151 473.643 495.402C487.372 484.653 543.74 556.634 557.477 545.879C571.213 535.125 514.846 463.143 528.583 452.388C542.32 441.633 598.672 513.627 612.409 502.872C626.146 492.117 569.779 420.135 583.516 409.381C597.252 398.626 653.605 470.619 667.342 459.864C681.079 449.109 624.711 377.128 638.448 366.373C652.185 355.618 708.538 427.611 722.274 416.857C736.011 406.102 679.651 334.115 693.381 323.366C707.11 312.617 763.478 384.598 777.207 373.849C790.937 363.1 734.584 291.107 748.313 280.358C762.043 269.609 818.41 341.591 832.147 330.836C845.884 320.081 789.517 248.099 803.253 237.345C816.99 226.59 873.35 298.577 887.08 287.828C900.809 277.079 844.456 205.086 858.193 194.331C871.93 183.577 928.29 255.564 942.027 244.809C955.764 234.054 899.404 162.067 913.133 151.318" stroke="#A1D634" stroke-opacity="0.3" stroke-width="0.57971" stroke-miterlimit="10"/>
<path d="M-344.112 356.306C-330.383 345.557 -274.023 417.544 -260.286 406.79C-246.549 396.035 -302.917 324.053 -289.18 313.299C-275.443 302.544 -219.09 374.537 -205.353 363.782C-191.617 353.027 -247.984 281.046 -234.247 270.291C-220.51 259.536 -164.158 331.529 -150.421 320.775C-136.684 310.02 -193.051 238.038 -179.314 227.284C-165.578 216.529 -109.225 288.522 -95.4883 277.767C-81.7514 267.012 -138.119 195.031 -124.389 184.282C-110.66 173.533 -54.2925 245.514 -40.5336 234.742C-26.7747 223.97 -83.164 152.006 -69.4346 141.257C-55.7051 130.508 0.669552 202.484 14.3696 191.758C28.0696 181.032 -28.2609 109.021 -14.4872 98.2378C-0.713631 87.4543 55.6022 159.476 69.3316 148.727C83.0611 137.978 26.7085 65.985 40.438 55.236C54.1675 44.487 110.527 116.474 124.264 105.72C138.001 94.9648 81.6338 22.9833 95.3632 12.2343C109.093 1.48526 165.46 73.4668 179.197 62.712C192.934 51.9573 136.566 -20.0243 150.303 -30.779C164.04 -41.5338 220.393 30.4593 234.129 19.7045C247.866 8.94975 191.499 -63.0318 205.236 -73.7866C218.973 -84.5414 275.325 -12.5482 289.062 -23.303C302.799 -34.0578 246.432 -106.039 260.168 -116.794C273.905 -127.549 330.258 -55.5558 343.995 -66.3106C357.731 -77.0653 301.372 -149.053 315.101 -159.802C328.83 -170.551 385.198 -98.5691 398.927 -109.318C412.657 -120.067 356.304 -192.06 370.034 -202.809C383.763 -213.558 440.13 -141.577 453.867 -152.331C467.604 -163.086 411.237 -235.068 424.974 -245.823C438.71 -256.577 495.07 -184.59 508.8 -195.339C522.529 -206.088 466.177 -278.081 479.914 -288.836C493.65 -299.591 550.01 -227.603 563.747 -238.358C577.484 -249.113 521.124 -321.1 534.854 -331.849" stroke="#A1D634" stroke-opacity="0.3" stroke-width="0.57971" stroke-miterlimit="10"/>
<path d="M-53.3672 727.669C-39.6377 716.92 16.7222 788.907 30.459 778.152C44.1959 767.397 -12.1714 695.416 1.56542 684.661C15.3022 673.906 71.6548 745.899 85.3916 735.145C99.1285 724.39 42.7612 652.408 56.498 641.654C70.2349 630.899 126.587 702.892 140.324 692.137C154.061 681.382 97.6938 609.401 111.431 598.646C125.167 587.891 181.52 659.884 195.257 649.13C208.994 638.375 152.626 566.393 166.356 555.644C180.085 544.895 236.453 616.877 250.212 606.105C263.97 595.333 207.581 523.368 221.311 512.619C235.04 501.87 291.415 573.846 305.115 563.12C318.815 552.394 262.484 480.384 276.258 469.6C290.031 458.817 346.347 530.839 360.077 520.09C373.806 509.341 317.454 437.348 331.183 426.599C344.913 415.85 401.273 487.837 415.009 477.082C428.746 466.327 372.379 394.346 386.108 383.597C399.838 372.848 456.205 444.829 469.942 434.075C483.679 423.32 427.311 351.338 441.048 340.584C454.785 329.829 511.138 401.822 524.875 391.067C538.611 380.312 482.244 308.331 495.981 297.576C509.718 286.821 566.07 358.814 579.807 348.06C593.544 337.305 537.177 265.323 550.914 254.568C564.65 243.814 621.003 315.807 634.74 305.052C648.477 294.297 592.117 222.31 605.846 211.561C619.576 200.812 675.943 272.793 689.672 262.044C703.402 251.295 647.049 179.302 660.779 168.553C674.508 157.804 730.876 229.786 744.612 219.031C758.349 208.276 701.982 136.295 715.719 125.54C729.456 114.785 785.815 186.773 799.545 176.024C813.274 165.275 756.922 93.2815 770.659 82.5267C784.395 71.772 840.755 143.759 854.492 133.004C868.229 122.25 811.869 50.2624 825.599 39.5134" stroke="#A1D634" stroke-opacity="0.3" stroke-width="0.57971" stroke-miterlimit="10"/>
<path d="M-140.9 615.864C-127.171 605.115 -70.811 677.103 -57.0742 666.348C-43.3373 655.593 -99.7046 583.611 -85.9678 572.857C-72.231 562.102 -15.8784 634.095 -2.14155 623.34C11.5953 612.586 -44.772 540.604 -31.0352 529.849C-17.2983 519.094 39.0542 591.087 52.7911 580.333C66.5279 569.578 10.1606 497.596 23.8974 486.842C37.6342 476.087 93.9868 548.08 107.724 537.325C121.46 526.57 65.0932 454.589 78.8227 443.84C92.5521 433.091 148.919 505.072 162.678 494.3C176.437 483.528 120.048 411.564 133.777 400.815C147.507 390.066 203.881 462.042 217.582 451.316C231.282 440.59 174.951 368.58 188.725 357.796C202.498 347.012 258.814 419.034 272.544 408.285C286.273 397.536 229.92 325.543 243.65 314.794C257.379 304.045 313.739 376.032 327.476 365.278C341.213 354.523 284.846 282.541 298.575 271.792C312.305 261.043 368.672 333.025 382.409 322.27C396.146 311.515 339.778 239.534 353.515 228.779C367.252 218.024 423.605 290.017 437.341 279.263C451.078 268.508 394.711 196.526 408.448 185.772C422.185 175.017 478.537 247.01 492.274 236.255C506.011 225.5 449.644 153.519 463.38 142.764C477.117 132.009 533.47 204.002 547.207 193.248C560.943 182.493 504.583 110.505 518.313 99.7564C532.042 89.0074 588.41 160.989 602.139 150.24C615.869 139.491 559.516 67.4979 573.246 56.7489C586.975 45.9999 643.342 117.981 657.079 107.227C670.816 96.4719 614.449 24.4903 628.186 13.7356C641.922 2.98079 698.282 74.9681 712.012 64.2191C725.741 53.4701 669.389 -18.5229 683.125 -29.2777C696.862 -40.0325 753.222 31.9548 766.959 21.2C780.696 10.4453 724.336 -61.542 738.065 -72.291" stroke="#A1D634" stroke-opacity="0.3" stroke-width="0.57971" stroke-miterlimit="10"/>
<path d="M149.846 987.228C163.575 976.479 219.935 1048.47 233.672 1037.71C247.409 1026.96 191.041 954.975 204.778 944.22C218.515 933.465 274.868 1005.46 288.605 994.704C302.341 983.949 245.974 911.967 259.711 901.213C273.448 890.458 329.8 962.451 343.537 951.696C357.274 940.941 300.907 868.96 314.644 858.205C328.38 847.45 384.733 919.443 398.47 908.689C412.207 897.934 355.839 825.952 369.569 815.203C383.298 804.454 439.666 876.436 453.424 865.664C467.183 854.892 410.794 782.928 424.523 772.179C438.253 761.43 494.628 833.405 508.328 822.679C522.028 811.953 465.697 739.943 479.471 729.159C493.244 718.376 549.56 790.398 563.29 779.649C577.019 768.9 520.667 696.907 534.396 686.158C548.125 675.409 604.485 747.396 618.222 736.641C631.959 725.886 575.592 653.905 589.321 643.156C603.051 632.407 659.418 704.388 673.155 693.634C686.892 682.879 630.524 610.897 644.261 600.143C657.998 589.388 714.351 661.381 728.087 650.626C741.824 639.871 685.457 567.89 699.194 557.135C712.931 546.38 769.283 618.373 783.02 607.619C796.757 596.864 740.39 524.882 754.126 514.127C767.863 503.373 824.216 575.366 837.953 564.611C851.689 553.856 795.33 481.869 809.059 471.12C822.789 460.371 879.156 532.352 892.885 521.603C906.615 510.854 850.262 438.861 863.992 428.112C877.721 417.363 934.088 489.345 947.825 478.59C961.562 467.835 905.195 395.854 918.932 385.099C932.668 374.344 989.028 446.332 1002.76 435.583C1016.49 424.834 960.135 352.841 973.872 342.086C987.608 331.331 1043.97 403.318 1057.71 392.564C1071.44 381.809 1015.08 309.821 1028.81 299.072" stroke="#A1D634" stroke-opacity="0.3" stroke-width="0.57971" stroke-miterlimit="10"/>
<path d="M-403.432 280.539C-389.702 269.79 -333.342 341.777 -319.605 331.022C-305.869 320.268 -362.236 248.286 -348.499 237.531C-334.762 226.777 -278.41 298.77 -264.673 288.015C-250.936 277.26 -307.303 205.279 -293.566 194.524C-279.83 183.769 -223.477 255.762 -209.74 245.007C-196.003 234.253 -252.371 162.271 -238.634 151.516C-224.897 140.762 -168.544 212.755 -154.808 202C-141.071 191.245 -197.438 119.264 -183.709 108.515C-169.979 97.7655 -113.612 169.747 -99.8529 158.975C-86.094 148.203 -142.483 76.2387 -128.754 65.4897C-115.024 54.7407 -58.6498 126.716 -44.9497 115.991C-31.2497 105.265 -87.5802 33.2542 -73.8066 22.4706C-60.033 11.6871 -3.71717 83.7089 10.0123 72.9599C23.7418 62.2109 -32.6108 -9.78217 -18.8813 -20.5312C-5.15185 -31.2802 51.2081 40.7072 64.9449 29.9524C78.6817 19.1976 22.3144 -52.7839 36.0439 -63.5329C49.7734 -74.2819 106.141 -2.3004 119.878 -13.0552C133.614 -23.8099 77.247 -95.7915 90.9838 -106.546C104.721 -117.301 161.073 -45.3079 174.81 -56.0627C188.547 -66.8175 132.18 -138.799 145.916 -149.554C159.653 -160.309 216.006 -88.3155 229.743 -99.0702C243.48 -109.825 187.112 -181.807 200.849 -192.561C214.586 -203.316 270.938 -131.323 284.675 -142.078C298.412 -152.833 242.052 -224.82 255.782 -235.569C269.511 -246.318 325.878 -174.336 339.608 -185.085C353.337 -195.834 296.985 -267.827 310.714 -278.576C324.444 -289.325 380.811 -217.344 394.548 -228.099C408.285 -238.853 351.917 -310.835 365.654 -321.59C379.391 -332.345 435.751 -260.357 449.48 -271.106C463.21 -281.855 406.857 -353.848 420.594 -364.603C434.331 -375.358 490.691 -303.371 504.428 -314.125C518.165 -324.88 461.805 -396.867 475.534 -407.616" stroke="#A1D634" stroke-opacity="0.3" stroke-width="0.57971" stroke-miterlimit="10"/>
<path d="M-200.219 540.098C-186.489 529.349 -130.129 601.336 -116.393 590.581C-102.656 579.826 -159.023 507.845 -145.286 497.09C-131.549 486.335 -75.1967 558.328 -61.4599 547.574C-47.7231 536.819 -104.09 464.837 -90.3535 454.083C-76.6167 443.328 -20.2641 515.321 -6.52731 504.566C7.20952 493.811 -49.1578 421.83 -35.4209 411.075C-21.6841 400.32 34.6685 472.313 48.4053 461.559C62.1421 450.804 5.77484 378.822 19.5043 368.073C33.2338 357.324 89.6011 429.306 103.36 418.534C117.119 407.762 60.7295 335.797 74.459 325.048C88.1885 314.299 144.563 386.275 158.263 375.549C171.963 364.823 115.633 292.813 129.406 282.029C143.18 271.246 199.496 343.268 213.225 332.519C226.955 321.77 170.602 249.777 184.332 239.028C198.061 228.279 254.421 300.266 268.158 289.511C281.895 278.756 225.527 206.775 239.257 196.026C252.986 185.277 309.354 257.258 323.09 246.504C336.827 235.749 280.46 163.767 294.197 153.012C307.934 142.258 364.286 214.251 378.023 203.496C391.76 192.741 335.393 120.76 349.129 110.005C362.866 99.2501 419.219 171.243 432.956 160.488C446.692 149.734 390.325 77.7521 404.062 66.9973C417.799 56.2426 474.151 128.236 487.888 117.481C501.625 106.726 445.265 34.7388 458.995 23.9898C472.724 13.2408 529.091 85.2224 542.821 74.4734C556.55 63.7244 500.198 -8.26871 513.927 -19.0177C527.657 -29.7667 584.024 42.2148 597.761 31.4601C611.498 20.7053 555.13 -51.2763 568.867 -62.031C582.604 -72.7858 638.964 -0.798465 652.693 -11.5475C666.423 -22.2965 610.07 -94.2895 623.807 -105.044C637.544 -115.799 693.904 -43.8118 707.641 -54.5666C721.378 -65.3213 665.018 -137.309 678.747 -148.058" stroke="#A1D634" stroke-opacity="0.3" stroke-width="0.57971" stroke-miterlimit="10"/>
<path d="M90.5273 911.46C104.257 900.711 160.617 972.699 174.354 961.944C188.09 951.189 131.723 879.208 145.46 868.453C159.197 857.698 215.549 929.691 229.286 918.936C243.023 908.182 186.656 836.2 200.393 825.445C214.129 814.691 270.482 886.684 284.219 875.929C297.956 865.174 241.588 793.193 255.325 782.438C269.062 771.683 325.415 843.676 339.151 832.921C352.888 822.167 296.521 750.185 310.25 739.436C323.98 728.687 380.347 800.669 394.106 789.897C407.865 779.124 351.476 707.16 365.205 696.411C378.935 685.662 435.309 757.638 449.009 746.912C462.709 736.186 406.379 664.176 420.152 653.392C433.926 642.609 490.242 714.63 503.971 703.881C517.701 693.132 461.348 621.139 475.078 610.39C488.807 599.641 545.167 671.629 558.904 660.874C572.641 650.119 516.273 578.138 530.003 567.389C543.732 556.64 600.1 628.621 613.837 617.866C627.573 607.112 571.206 535.13 584.943 524.375C598.68 513.621 655.032 585.614 668.769 574.859C682.506 564.104 626.139 492.122 639.875 481.368C653.612 470.613 709.965 542.606 723.702 531.851C737.438 521.097 681.071 449.115 694.808 438.36C708.545 427.605 764.897 499.598 778.634 488.844C792.371 478.089 736.011 406.102 749.741 395.353C763.47 384.604 819.837 456.585 833.567 445.836C847.296 435.087 790.944 363.094 804.673 352.345C818.403 341.596 874.77 413.578 888.507 402.823C902.244 392.068 845.876 320.087 859.613 309.332C873.35 298.577 929.71 370.564 943.439 359.815C957.169 349.066 900.816 277.073 914.553 266.318C928.29 255.564 984.65 327.551 998.387 316.796C1012.12 306.041 955.764 234.054 969.493 223.305" stroke="#A1D634" stroke-opacity="0.3" stroke-width="0.57971" stroke-miterlimit="10"/>
<path d="M-287.751 428.293C-274.022 417.544 -217.662 489.532 -203.925 478.777C-190.188 468.022 -246.556 396.04 -232.819 385.286C-219.082 374.531 -162.729 446.524 -148.993 435.769C-135.256 425.014 -191.623 353.033 -177.886 342.278C-164.149 331.523 -107.797 403.516 -94.06 392.762C-80.3232 382.007 -136.69 310.025 -122.954 299.271C-109.217 288.516 -52.8642 360.509 -39.1274 349.754C-25.3906 338.999 -81.7579 267.018 -68.0284 256.269C-54.2989 245.52 2.06836 317.501 15.8273 306.729C29.5862 295.957 -26.8032 223.993 -13.0737 213.244C0.655749 202.495 57.0304 274.471 70.7304 263.745C84.4305 253.019 28.1 181.008 41.8736 170.225C55.6472 159.441 111.963 231.463 125.692 220.714C139.422 209.965 83.0694 137.972 96.7989 127.223C110.528 116.474 166.888 188.461 180.625 177.707C194.362 166.952 137.995 94.9703 151.724 84.2213C165.454 73.4723 221.821 145.454 235.558 134.699C249.295 123.944 192.927 51.9628 206.664 41.208C220.401 30.4533 276.753 102.446 290.49 91.6916C304.227 80.9368 247.86 8.95523 261.597 -1.79953C275.333 -12.5543 331.686 59.4388 345.423 48.684C359.16 37.9293 302.792 -34.0523 316.529 -44.8071C330.266 -55.5619 386.619 16.4312 400.355 5.67648C414.092 -5.07829 357.732 -77.0656 371.462 -87.8146C385.191 -98.5636 441.559 -26.5821 455.288 -37.3311C469.018 -48.0801 412.665 -120.073 426.394 -130.822C440.124 -141.571 496.491 -69.5896 510.228 -80.3444C523.965 -91.0992 467.598 -163.081 481.334 -173.835C495.071 -184.59 551.431 -112.603 565.161 -123.352C578.89 -134.101 522.538 -206.094 536.274 -216.849C550.011 -227.604 606.371 -155.616 620.108 -166.371C633.845 -177.126 577.485 -249.113 591.214 -259.862" stroke="#A1D634" stroke-opacity="0.3" stroke-width="0.57971" stroke-miterlimit="10"/>
<path d="M2.99365 799.657C16.7231 788.908 73.0831 860.895 86.8199 850.14C100.557 839.386 44.1894 767.404 57.9263 756.649C71.6631 745.894 128.016 817.888 141.752 807.133C155.489 796.378 99.122 724.396 112.859 713.642C126.596 702.887 182.948 774.88 196.685 764.125C210.422 753.37 154.055 681.389 167.791 670.634C181.528 659.879 237.881 731.872 251.618 721.118C265.355 710.363 208.987 638.381 222.717 627.632C236.446 616.883 292.813 688.865 306.572 678.093C320.331 667.321 263.942 595.356 277.671 584.607C291.401 573.858 347.776 645.834 361.476 635.108C375.176 624.382 318.845 552.372 332.619 541.588C346.392 530.805 402.708 602.827 416.438 592.078C430.167 581.329 373.815 509.336 387.544 498.587C401.273 487.838 457.633 559.825 471.37 549.07C485.107 538.315 428.74 466.334 442.469 455.585C456.199 444.836 512.566 516.817 526.303 506.063C540.04 495.308 483.672 423.326 497.409 412.572C511.146 401.817 567.499 473.81 581.235 463.055C594.972 452.3 538.605 380.319 552.342 369.564C566.079 358.809 622.431 430.802 636.168 420.048C649.905 409.293 593.538 337.311 607.274 326.556C621.011 315.802 677.364 387.795 691.101 377.04C704.837 366.285 648.478 294.298 662.207 283.549C675.936 272.8 732.304 344.781 746.033 334.032C759.763 323.283 703.41 251.29 717.14 240.541C730.869 229.792 787.236 301.774 800.973 291.019C814.71 280.264 758.343 208.283 772.08 197.528C785.816 186.773 842.176 258.761 855.906 248.012C869.635 237.263 813.283 165.27 827.019 154.515C840.756 143.76 897.116 215.747 910.853 204.993C924.59 194.238 868.23 122.25 881.959 111.501" stroke="#A1D634" stroke-opacity="0.3" stroke-width="0.57971" stroke-miterlimit="10"/>
<path d="M-84.5391 687.852C-70.8096 677.103 -14.4497 749.09 -0.712833 738.335C13.024 727.581 -43.3433 655.599 -29.6065 644.844C-15.8696 634.089 40.4829 706.083 54.2198 695.328C67.9566 684.573 11.5893 612.591 25.3262 601.837C39.063 591.082 95.4156 663.075 109.152 652.32C122.889 641.566 66.5219 569.584 80.2587 558.829C93.9956 548.074 150.348 620.067 164.085 609.313C177.822 598.558 121.455 526.576 135.184 515.827C148.913 505.078 205.281 577.06 219.04 566.288C232.799 555.516 176.409 483.552 190.139 472.803C203.868 462.054 260.243 534.029 273.943 523.303C287.643 512.577 231.312 440.567 245.086 429.783C258.86 419 315.175 491.022 328.905 480.273C342.634 469.524 286.282 397.531 300.011 386.782C313.741 376.033 370.101 448.02 383.837 437.265C397.574 426.51 341.207 354.529 354.936 343.78C368.666 333.031 425.033 405.012 438.77 394.258C452.507 383.503 396.14 311.521 409.876 300.767C423.613 290.012 479.966 362.005 493.703 351.25C507.44 340.495 451.072 268.514 464.809 257.759C478.546 247.004 534.898 318.997 548.635 308.243C562.372 297.488 506.005 225.506 519.742 214.751C533.479 203.997 589.831 275.99 603.568 265.235C617.305 254.48 560.945 182.493 574.674 171.744C588.404 160.995 644.771 232.977 658.501 222.228C672.23 211.479 615.877 139.485 629.607 128.736C643.336 117.987 699.704 189.969 713.44 179.214C727.177 168.459 670.81 96.4779 684.547 85.7231C698.284 74.9683 754.644 146.956 768.373 136.207C782.103 125.458 725.75 53.4646 739.487 42.7098C753.224 31.9551 809.584 103.942 823.32 93.1876C837.057 82.4328 780.697 10.4455 794.427 -0.30349" stroke="#A1D634" stroke-opacity="0.3" stroke-width="0.57971" stroke-miterlimit="10"/>
<path d="M206.206 1059.22C219.936 1048.47 276.295 1120.45 290.032 1109.7C303.769 1098.94 247.402 1026.96 261.139 1016.21C274.875 1005.45 331.228 1077.45 344.965 1066.69C358.702 1055.94 302.334 983.956 316.071 973.201C329.808 962.446 386.161 1034.44 399.897 1023.68C413.634 1012.93 357.267 940.948 371.004 930.193C384.741 919.439 441.093 991.432 454.83 980.677C468.567 969.922 412.2 897.941 425.929 887.192C439.659 876.443 496.026 948.424 509.785 937.652C523.544 926.88 467.154 854.916 480.884 844.167C494.613 833.418 550.988 905.394 564.688 894.668C578.388 883.942 522.057 811.931 535.831 801.148C549.605 790.364 605.921 862.386 619.65 851.637C633.379 840.888 577.027 768.895 590.756 758.146C604.486 747.397 660.846 819.384 674.583 808.63C688.319 797.875 631.952 725.893 645.682 715.144C659.411 704.395 715.778 776.377 729.515 765.622C743.252 754.867 686.885 682.886 700.622 672.131C714.358 661.376 770.711 733.369 784.448 722.614C798.185 711.86 741.817 639.878 755.554 629.123C769.291 618.369 825.644 690.362 839.38 679.607C853.117 668.852 796.75 596.871 810.487 586.116C824.224 575.361 880.576 647.354 894.313 636.599C908.05 625.845 851.69 553.857 865.419 543.108C879.149 532.359 935.516 604.341 949.246 593.592C962.975 582.843 906.622 510.85 920.352 500.101C934.081 489.352 990.449 561.333 1004.19 550.578C1017.92 539.824 961.555 467.842 975.292 457.087C989.029 446.333 1045.39 518.32 1059.12 507.571C1072.85 496.822 1016.5 424.829 1030.23 414.074C1043.97 403.319 1100.33 475.307 1114.07 464.552C1127.8 453.797 1071.44 381.81 1085.17 371.061" stroke="#A1D634" stroke-opacity="0.3" stroke-width="0.57971" stroke-miterlimit="10"/>
</g>
<defs>
<clipPath id="clip0_6746_7597">
<rect width="740.87" height="723.478" fill="white" transform="translate(0 -35.8407)"/>
</clipPath>
</defs>
</svg>
