<svg width="662" height="738" viewBox="0 0 662 738" fill="none" xmlns="http://www.w3.org/2000/svg">
<g clip-path="url(#clip0_6746_7430)">
<path d="M-595.002 210.355C-580.962 199.363 -523.324 272.982 -509.275 261.984C-495.227 250.985 -552.872 177.371 -538.824 166.372C-524.776 155.374 -467.145 229 -453.097 218.001C-439.048 207.002 -496.694 133.388 -482.646 122.39C-468.597 111.391 -410.967 185.017 -396.918 174.018C-382.87 163.019 -440.516 89.4053 -426.467 78.4067C-412.419 67.408 -354.788 141.034 -340.74 130.035C-326.692 119.036 -384.337 45.4224 -370.296 34.4296C-356.256 23.4369 -298.61 97.0509 -284.539 86.0345C-270.468 75.0182 -328.136 1.42185 -314.095 -9.57093C-300.055 -20.5637 -242.401 53.0444 -228.391 42.0752C-214.38 31.106 -271.988 -42.5375 -257.902 -53.5656C-243.816 -64.5937 -186.223 9.0615 -172.182 -1.93127C-158.141 -12.9241 -215.772 -86.5498 -201.731 -97.5426C-187.69 -108.535 -130.052 -34.9155 -116.004 -45.9142C-101.955 -56.9128 -159.601 -130.527 -145.56 -141.52C-131.519 -152.512 -73.8737 -78.8984 -59.8254 -89.8971C-45.777 -100.896 -103.423 -174.51 -89.3743 -185.508C-75.3259 -196.507 -17.6953 -122.881 -3.64699 -133.88C10.4014 -144.879 -47.2442 -218.493 -33.1959 -229.491C-19.1475 -240.49 38.483 -166.864 52.5314 -177.863C66.5798 -188.862 8.93419 -262.476 22.9826 -273.474C37.0309 -284.473 94.6615 -210.847 108.71 -221.846C122.758 -232.844 65.1201 -306.464 79.1609 -317.457C93.2018 -328.45 150.847 -254.836 164.888 -265.829C178.929 -276.821 121.298 -350.447 135.339 -361.44C149.38 -372.433 207.026 -298.819 221.074 -309.817C235.123 -320.816 177.477 -394.43 191.525 -405.429C205.574 -416.427 263.212 -342.808 277.253 -353.8C291.293 -364.793 233.663 -438.419 247.711 -449.418C261.759 -460.416 319.398 -386.796 333.446 -397.795C347.494 -408.794 289.856 -482.414 303.897 -493.406" stroke="#A1D634" stroke-opacity="0.08" stroke-width="0.592857" stroke-miterlimit="10"/>
<path d="M-476.7 361.461C-462.659 350.468 -405.021 424.088 -390.972 413.089C-376.924 402.09 -434.57 328.476 -420.521 317.478C-406.473 306.479 -348.842 380.105 -334.794 369.106C-320.746 358.108 -378.391 284.494 -364.343 273.495C-350.295 262.496 -292.664 336.122 -278.616 325.123C-264.567 314.125 -322.213 240.511 -308.165 229.512C-294.116 218.513 -236.486 292.139 -222.437 281.14C-208.389 270.142 -266.034 196.528 -251.994 185.535C-237.953 174.542 -180.307 248.156 -166.236 237.14C-152.165 226.124 -209.833 152.527 -195.793 141.534C-181.752 130.542 -124.099 204.15 -110.088 193.181C-96.0772 182.211 -153.685 108.568 -139.599 97.5397C-125.513 86.5116 -67.9203 160.167 -53.8794 149.174C-39.8386 138.181 -97.4692 64.5555 -83.4283 53.5627C-69.3875 42.5699 -11.7494 116.19 2.29894 105.191C16.3473 94.1925 -41.2983 20.5785 -27.2575 9.58574C-13.2166 -1.40704 44.429 72.2069 58.4774 61.2083C72.5257 50.2096 14.8801 -23.4044 28.9284 -34.403C42.9768 -45.4017 100.607 28.2241 114.656 17.2254C128.704 6.22672 71.0585 -67.3873 85.1069 -78.386C99.1552 -89.3846 156.786 -15.7588 170.834 -26.7575C184.882 -37.7562 127.237 -111.37 141.285 -122.369C155.334 -133.368 212.964 -59.7417 227.013 -70.7404C241.061 -81.7391 183.423 -155.359 197.464 -166.352C211.505 -177.345 269.15 -103.731 283.191 -114.723C297.232 -125.716 239.601 -199.342 253.642 -210.335C267.683 -221.327 325.329 -147.713 339.377 -158.712C353.425 -169.711 295.78 -243.325 309.828 -254.323C323.876 -265.322 381.514 -191.702 395.555 -202.695C409.596 -213.688 351.966 -287.314 366.014 -298.312C380.062 -309.311 437.7 -235.691 451.749 -246.69C465.797 -257.688 408.159 -331.308 422.2 -342.301" stroke="#A1D634" stroke-opacity="0.08" stroke-width="0.592857" stroke-miterlimit="10"/>
<path d="M-268.879 626.906C-254.839 615.913 -197.2 689.533 -183.152 678.534C-169.104 667.535 -226.749 593.921 -212.701 582.923C-198.653 571.924 -141.022 645.55 -126.974 634.551C-112.925 623.553 -170.571 549.939 -156.523 538.94C-142.474 527.941 -84.8437 601.567 -70.7953 590.568C-56.7469 579.57 -114.393 505.956 -100.344 494.957C-86.2958 483.958 -28.6653 557.584 -14.6169 546.585C-0.56854 535.587 -58.2142 461.973 -44.1733 450.98C-30.1325 439.987 27.5131 513.601 41.5841 502.585C55.655 491.568 -2.01318 417.972 12.0277 406.979C26.0685 395.987 83.7216 469.595 97.7324 458.625C111.743 447.656 54.1351 374.013 68.2211 362.985C82.3071 351.957 139.9 425.612 153.941 414.619C167.982 403.626 110.351 330 124.392 319.008C138.433 308.015 196.071 381.635 210.119 370.636C224.168 359.637 166.522 286.023 180.563 275.031C194.604 264.038 252.249 337.652 266.298 326.653C280.346 315.655 222.7 242.041 236.749 231.042C250.797 220.043 308.428 293.669 322.476 282.67C336.524 271.672 278.879 198.058 292.927 187.059C306.976 176.06 364.606 249.686 378.654 238.687C392.703 227.689 335.057 154.075 349.106 143.076C363.154 132.077 420.785 205.703 434.833 194.705C448.881 183.706 391.243 110.086 405.284 99.0932C419.325 88.1004 476.97 161.714 491.011 150.722C505.052 139.729 447.422 66.1031 461.462 55.1103C475.503 44.1175 533.149 117.732 547.197 106.733C561.246 95.7342 503.6 22.1202 517.648 11.1215C531.697 0.122825 589.335 73.7427 603.376 62.75C617.416 51.7572 559.786 -21.8686 573.834 -32.8672C587.883 -43.8659 645.521 29.7539 659.569 18.7553C673.617 7.75658 615.979 -65.8633 630.02 -76.8561" stroke="#A1D634" stroke-opacity="0.08" stroke-width="0.592857" stroke-miterlimit="10"/>
<path d="M28.4604 1006.69C42.5013 995.698 100.139 1069.32 114.188 1058.32C128.236 1047.32 70.5905 973.706 84.6389 962.707C98.6872 951.709 156.318 1025.33 170.366 1014.34C184.415 1003.34 126.769 929.723 140.817 918.725C154.866 907.726 212.496 981.352 226.545 970.353C240.593 959.354 182.947 885.74 196.996 874.742C211.044 863.743 268.675 937.369 282.723 926.37C296.771 915.371 239.126 841.757 253.167 830.765C267.207 819.772 324.853 893.386 338.924 882.369C352.995 871.353 295.327 797.757 309.367 786.764C323.408 775.771 381.061 849.379 395.072 838.41C409.083 827.441 351.475 753.797 365.561 742.769C379.647 731.741 437.24 805.396 451.281 794.404C465.322 783.411 407.691 709.785 421.732 698.792C435.773 687.8 493.411 761.419 507.459 750.421C521.507 739.422 463.862 665.808 477.903 654.815C491.944 643.823 549.589 717.437 563.638 706.438C577.686 695.439 520.04 621.825 534.089 610.827C548.137 599.828 605.768 673.454 619.816 662.455C633.864 651.456 576.219 577.842 590.267 566.844C604.315 555.845 661.946 629.471 675.994 618.472C690.043 607.473 632.397 533.859 646.445 522.861C660.494 511.862 718.124 585.488 732.173 574.489C746.221 563.491 688.583 489.871 702.624 478.878C716.665 467.885 774.31 541.499 788.351 530.506C802.392 519.514 744.761 445.888 758.802 434.895C772.843 423.902 830.489 497.516 844.537 486.518C858.585 475.519 800.94 401.905 814.988 390.906C829.037 379.907 886.675 453.527 900.715 442.535C914.756 431.542 857.126 357.916 871.174 346.917C885.222 335.919 942.861 409.539 956.909 398.54C970.957 387.541 913.319 313.921 927.36 302.929" stroke="#A1D634" stroke-opacity="0.08" stroke-width="0.592857" stroke-miterlimit="10"/>
<path d="M-537.364 283.975C-523.323 272.982 -465.685 346.602 -451.637 335.604C-437.589 324.605 -495.234 250.991 -481.186 239.992C-467.137 228.994 -409.507 302.619 -395.459 291.621C-381.41 280.622 -439.056 207.008 -425.007 196.009C-410.959 185.011 -353.329 258.637 -339.28 247.638C-325.232 236.639 -382.877 163.025 -368.829 152.026C-354.781 141.028 -297.15 214.654 -283.102 203.655C-269.053 192.656 -326.699 119.042 -312.658 108.049C-298.617 97.0567 -240.972 170.671 -226.901 159.654C-212.83 148.638 -270.498 75.0417 -256.457 64.0489C-242.416 53.0561 -184.763 126.664 -170.752 115.695C-156.742 104.726 -214.35 31.0824 -200.264 20.0542C-186.178 9.02612 -128.585 82.6813 -114.544 71.6886C-100.503 60.6958 -158.134 -12.93 -144.093 -23.9228C-130.052 -34.9156 -72.414 38.7044 -58.3656 27.7057C-44.3172 16.707 -101.963 -56.907 -87.922 -67.8998C-73.8812 -78.8925 -16.2355 -5.27856 -2.18718 -16.2772C11.8612 -27.2759 -45.7845 -100.89 -31.7361 -111.889C-17.6878 -122.887 39.9428 -49.2614 53.9912 -60.2601C68.0396 -71.2588 10.3939 -144.873 24.4423 -155.871C38.4907 -166.87 96.1212 -93.2443 110.17 -104.243C124.218 -115.242 66.5724 -188.856 80.6207 -199.854C94.6691 -210.853 152.3 -137.227 166.348 -148.226C180.396 -159.225 122.758 -232.844 136.799 -243.837C150.84 -254.83 208.486 -181.216 222.526 -192.209C236.567 -203.202 178.937 -276.827 192.977 -287.82C207.018 -298.813 264.664 -225.199 278.712 -236.198C292.761 -247.196 235.115 -320.81 249.163 -331.809C263.212 -342.808 320.85 -269.188 334.891 -280.18C348.932 -291.173 291.301 -364.799 305.349 -375.798C319.398 -386.796 377.036 -313.177 391.084 -324.175C405.133 -335.174 347.494 -408.794 361.535 -419.787" stroke="#A1D634" stroke-opacity="0.08" stroke-width="0.592857" stroke-miterlimit="10"/>
<path d="M-329.543 549.42C-315.503 538.428 -257.865 612.047 -243.816 601.049C-229.768 590.05 -287.413 516.436 -273.365 505.437C-259.317 494.439 -201.686 568.065 -187.638 557.066C-173.589 546.067 -231.235 472.453 -217.187 461.454C-203.138 450.456 -145.508 524.082 -131.459 513.083C-117.411 502.084 -175.057 428.47 -161.008 417.472C-146.96 406.473 -89.3293 480.099 -75.281 469.1C-61.2326 458.101 -118.878 384.487 -104.837 373.495C-90.7965 362.502 -33.1509 436.116 -19.08 425.099C-5.00905 414.083 -62.6772 340.487 -48.6364 329.494C-34.5956 318.501 23.0576 392.109 37.0683 381.14C51.079 370.171 -6.52895 296.527 7.55704 285.499C21.643 274.471 79.236 348.126 93.2768 337.134C107.318 326.141 49.6871 252.515 63.7279 241.522C77.7688 230.53 135.407 304.149 149.455 293.151C163.504 282.152 105.858 208.538 119.899 197.545C133.94 186.553 191.585 260.167 205.634 249.168C219.682 238.169 162.036 164.555 176.085 153.557C190.133 142.558 247.764 216.184 261.812 205.185C275.86 194.186 218.215 120.572 232.263 109.574C246.311 98.575 303.942 172.201 317.99 161.202C332.039 150.203 274.393 76.5894 288.442 65.5907C302.49 54.5921 360.12 128.218 374.169 117.219C388.217 106.221 330.579 32.6006 344.62 21.6078C358.661 10.6151 416.306 84.229 430.347 73.2363C444.388 62.2435 386.757 -11.3823 400.798 -22.375C414.839 -33.3678 472.485 40.2462 486.533 29.2475C500.581 18.2488 442.936 -55.3652 456.984 -66.3639C471.033 -77.3625 528.671 -3.74261 542.712 -14.7354C556.752 -25.7282 499.122 -99.3539 513.17 -110.353C527.218 -121.351 584.857 -47.7314 598.905 -58.7301C612.953 -69.7288 555.315 -143.349 569.356 -154.341" stroke="#A1D634" stroke-opacity="0.08" stroke-width="0.592857" stroke-miterlimit="10"/>
<path d="M-32.2041 929.206C-18.1633 918.213 39.4748 991.833 53.5232 980.835C67.5715 969.836 9.92594 896.222 23.9743 885.223C38.0227 874.224 95.6532 947.85 109.702 936.852C123.75 925.853 66.1043 852.239 80.1527 841.24C94.2011 830.242 151.832 903.867 165.88 892.869C179.928 881.87 122.283 808.256 136.331 797.257C150.379 786.259 208.01 859.884 222.058 848.886C236.107 837.887 178.461 764.273 192.502 753.28C206.543 742.288 264.188 815.902 278.259 804.885C292.33 793.869 234.662 720.273 248.703 709.28C262.744 698.287 320.397 771.895 334.408 760.926C348.418 749.957 290.81 676.313 304.896 665.285C318.982 654.257 376.575 727.912 390.616 716.919C404.657 705.927 347.026 632.301 361.067 621.308C375.108 610.315 432.746 683.935 446.795 672.937C460.843 661.938 403.197 588.324 417.238 577.331C431.279 566.338 488.925 639.952 502.973 628.954C517.021 617.955 459.376 544.341 473.424 533.342C487.472 522.344 545.103 595.969 559.151 584.971C573.2 573.972 515.554 500.358 529.602 489.359C543.651 478.361 601.281 551.987 615.33 540.988C629.378 529.989 571.733 456.375 585.781 445.376C599.829 434.378 657.46 508.004 671.508 497.005C685.557 486.006 627.918 412.386 641.959 401.394C656 390.401 713.646 464.015 727.687 453.022C741.727 442.029 684.097 368.404 698.138 357.411C712.178 346.418 769.824 420.032 783.872 409.033C797.921 398.035 740.275 324.421 754.324 313.422C768.372 302.423 826.01 376.043 840.051 365.05C854.092 354.058 796.461 280.432 810.509 269.433C824.558 258.434 882.196 332.054 896.244 321.056C910.293 310.057 852.655 236.437 866.695 225.444" stroke="#A1D634" stroke-opacity="0.08" stroke-width="0.592857" stroke-miterlimit="10"/>
<path d="M-419.062 435.081C-405.022 424.088 -347.384 497.708 -333.335 486.709C-319.287 475.71 -376.932 402.096 -362.884 391.098C-348.836 380.099 -291.205 453.725 -277.157 442.726C-263.108 431.728 -320.754 358.114 -306.706 347.115C-292.657 336.116 -235.027 409.742 -220.978 398.743C-206.93 387.745 -264.576 314.131 -250.527 303.132C-236.479 292.133 -178.848 365.759 -164.8 354.76C-150.752 343.762 -208.397 270.148 -194.356 259.155C-180.316 248.162 -122.67 321.776 -108.599 310.76C-94.5281 299.743 -152.196 226.147 -138.155 215.154C-124.115 204.162 -66.4615 277.77 -52.4507 266.801C-38.44 255.831 -96.048 182.188 -81.962 171.16C-67.876 160.132 -10.2831 233.787 3.75777 222.794C17.7986 211.801 -39.832 138.175 -25.7911 127.183C-11.7503 116.19 45.8878 189.81 59.9362 178.811C73.9845 167.812 16.3389 94.1985 30.3797 83.2057C44.4206 72.2129 102.066 145.827 116.115 134.828C130.163 123.83 72.5173 50.2156 86.5656 39.2169C100.614 28.2183 158.245 101.844 172.293 90.8454C186.341 79.8467 128.696 6.23268 142.744 -4.76599C156.792 -15.7647 214.423 57.8611 228.471 46.8625C242.52 35.8638 184.874 -37.7502 198.922 -48.7489C212.971 -59.7476 270.601 13.8782 284.65 2.87956C298.698 -8.11911 241.06 -81.739 255.101 -92.7318C269.142 -103.725 326.787 -30.1106 340.828 -41.1034C354.869 -52.0961 297.238 -125.722 311.279 -136.715C325.32 -147.707 382.966 -74.0935 397.014 -85.0921C411.062 -96.0908 353.417 -169.705 367.465 -180.703C381.514 -191.702 439.152 -118.082 453.192 -129.075C467.233 -140.068 409.603 -213.694 423.651 -224.692C437.699 -235.691 495.338 -162.071 509.386 -173.07C523.434 -184.068 465.796 -257.688 479.837 -268.681" stroke="#A1D634" stroke-opacity="0.08" stroke-width="0.592857" stroke-miterlimit="10"/>
<path d="M-121.722 814.865C-107.681 803.872 -50.0432 877.492 -35.9949 866.494C-21.9465 855.495 -79.5921 781.881 -65.5438 770.882C-51.4954 759.884 6.13516 833.509 20.1835 822.511C34.2319 811.512 -23.4137 737.898 -9.36536 726.899C4.683 715.901 62.3136 789.526 76.3619 778.528C90.4103 767.529 32.7647 693.915 46.813 682.916C60.8614 671.918 118.492 745.544 132.54 734.545C146.589 723.546 88.9431 649.932 102.984 638.939C117.025 627.947 174.67 701.561 188.741 690.544C202.812 679.528 145.144 605.932 159.185 594.939C173.226 583.946 230.879 657.554 244.89 646.585C258.9 635.616 201.292 561.972 215.378 550.944C229.464 539.916 287.057 613.571 301.098 602.578C315.139 591.586 257.508 517.96 271.549 506.967C285.59 495.974 343.228 569.594 357.276 558.596C371.325 547.597 313.679 473.983 327.72 462.99C341.761 451.997 399.407 525.611 413.455 514.613C427.503 503.614 369.858 430 383.906 419.001C397.954 408.003 455.585 481.628 469.633 470.63C483.682 459.631 426.036 386.017 440.084 375.018C454.133 364.02 511.763 437.646 525.812 426.647C539.86 415.648 482.214 342.034 496.263 331.036C510.311 320.037 567.942 393.663 581.99 382.664C596.038 371.665 538.4 298.045 552.441 287.053C566.482 276.06 624.128 349.674 638.169 338.681C652.209 327.688 594.579 254.063 608.62 243.07C622.66 232.077 680.306 305.691 694.354 294.692C708.403 283.694 650.757 210.08 664.806 199.081C678.854 188.082 736.492 261.702 750.533 250.709C764.574 239.717 706.943 166.091 720.991 155.092C735.04 144.094 792.678 217.713 806.726 206.715C820.775 195.716 763.137 122.096 777.177 111.103" stroke="#A1D634" stroke-opacity="0.08" stroke-width="0.592857" stroke-miterlimit="10"/>
<path d="M-211.241 700.526C-197.2 689.533 -139.562 763.153 -125.513 752.154C-111.465 741.155 -169.111 667.541 -155.062 656.543C-141.014 645.544 -83.3834 719.17 -69.335 708.171C-55.2867 697.172 -112.932 623.558 -98.8839 612.56C-84.8356 601.561 -27.205 675.187 -13.1566 664.188C0.89173 653.189 -56.7539 579.575 -42.7055 568.577C-28.6572 557.578 28.9734 631.204 43.0218 620.205C57.0701 609.207 -0.575484 535.593 13.4654 524.6C27.5062 513.607 85.1518 587.221 99.2227 576.205C113.294 565.188 55.6255 491.592 69.6663 480.599C83.7072 469.606 141.36 543.215 155.371 532.245C169.382 521.276 111.774 447.633 125.86 436.605C139.946 425.576 197.539 499.232 211.58 488.239C225.62 477.246 167.99 403.62 182.031 392.628C196.072 381.635 253.71 455.255 267.758 444.256C281.806 433.257 224.161 359.643 238.202 348.651C252.242 337.658 309.888 411.272 323.936 400.273C337.985 389.274 280.339 315.66 294.387 304.662C308.436 293.663 366.066 367.289 380.115 356.29C394.163 345.292 336.517 271.678 350.566 260.679C364.614 249.68 422.245 323.306 436.293 312.307C450.341 301.309 392.696 227.695 406.744 216.696C420.793 205.697 478.423 279.323 492.472 268.324C506.52 257.326 448.882 183.706 462.923 172.713C476.963 161.72 534.609 235.334 548.65 224.341C562.691 213.349 505.06 139.723 519.101 128.73C533.142 117.737 590.788 191.351 604.836 180.353C618.884 169.354 561.239 95.74 575.287 84.7414C589.335 73.7427 646.973 147.363 661.014 136.37C675.055 125.377 617.424 51.7513 631.473 40.7526C645.521 29.754 703.159 103.374 717.208 92.3751C731.256 81.3765 673.618 7.75659 687.659 -3.23619" stroke="#A1D634" stroke-opacity="0.08" stroke-width="0.592857" stroke-miterlimit="10"/>
<path d="M86.0986 1080.31C100.139 1069.32 157.778 1142.94 171.826 1131.94C185.874 1120.94 128.229 1047.33 142.277 1036.33C156.325 1025.33 213.956 1098.95 228.004 1087.96C242.053 1076.96 184.407 1003.34 198.455 992.345C212.504 981.346 270.134 1054.97 284.183 1043.97C298.231 1032.97 240.585 959.361 254.634 948.362C268.682 937.363 326.313 1010.99 340.361 999.99C354.409 988.992 296.764 915.378 310.805 904.385C324.846 893.392 382.491 967.006 396.562 955.99C410.633 944.973 352.965 871.377 367.006 860.384C381.047 849.391 438.7 923 452.71 912.03C466.721 901.061 409.113 827.418 423.199 816.39C437.285 805.361 494.878 879.017 508.919 868.024C522.96 857.031 465.329 783.405 479.37 772.413C493.411 761.42 551.049 835.04 565.097 824.041C579.146 813.042 521.5 739.428 535.541 728.436C549.582 717.443 607.227 791.057 621.276 780.058C635.324 769.059 577.678 695.445 591.727 684.447C605.775 673.448 663.406 747.074 677.454 736.075C691.502 725.077 633.857 651.463 647.905 640.464C661.954 629.465 719.584 703.091 733.632 692.092C747.681 681.094 690.035 607.48 704.084 596.481C718.132 585.482 775.763 659.108 789.811 648.109C803.859 637.111 746.221 563.491 760.262 552.498C774.303 541.505 831.948 615.119 845.989 604.127C860.03 593.134 802.4 519.508 816.44 508.515C830.481 497.522 888.127 571.136 902.175 560.138C916.224 549.139 858.578 475.525 872.626 464.526C886.675 453.528 944.313 527.148 958.354 516.155C972.394 505.162 914.764 431.536 928.812 420.538C942.861 409.539 1000.5 483.159 1014.55 472.16C1028.6 461.161 970.957 387.542 984.998 376.549" stroke="#A1D634" stroke-opacity="0.08" stroke-width="0.592857" stroke-miterlimit="10"/>
<path d="M-566.218 247.12C-552.177 236.128 -494.539 309.748 -480.49 298.749C-466.442 287.75 -524.088 214.136 -510.039 203.137C-495.991 192.139 -438.36 265.765 -424.312 254.766C-410.264 243.767 -467.909 170.153 -453.861 159.155C-439.813 148.156 -382.182 221.782 -368.134 210.783C-354.085 199.784 -411.731 126.17 -397.683 115.172C-383.634 104.173 -326.004 177.799 -311.955 166.8C-297.907 155.801 -355.553 82.1875 -341.512 71.1947C-327.471 60.2019 -269.825 133.816 -255.754 122.8C-241.683 111.783 -299.352 38.1869 -285.311 27.1941C-271.27 16.2013 -213.617 89.8095 -199.606 78.8402C-185.595 67.871 -243.203 -5.77243 -229.117 -16.8006C-215.031 -27.8287 -157.438 45.8266 -143.398 34.8338C-129.357 23.841 -186.987 -49.7848 -172.946 -60.7776C-158.906 -71.7704 -101.267 1.84956 -87.2191 -9.14911C-73.1708 -20.1478 -130.816 -93.7618 -116.776 -104.755C-102.735 -115.747 -45.0891 -42.1334 -31.0407 -53.132C-16.9923 -64.1307 -74.638 -137.745 -60.5896 -148.743C-46.5413 -159.742 11.0893 -86.1162 25.1377 -97.1149C39.186 -108.114 -18.4596 -181.728 -4.4112 -192.726C9.63716 -203.725 67.2677 -130.099 81.3161 -141.098C95.3644 -152.096 37.7189 -225.711 51.7672 -236.709C65.8156 -247.708 123.446 -174.082 137.494 -185.081C151.543 -196.079 93.9048 -269.699 107.946 -280.692C121.986 -291.685 179.632 -218.071 193.673 -229.064C207.714 -240.056 150.083 -313.682 164.124 -324.675C178.165 -335.668 235.81 -262.054 249.859 -273.052C263.907 -284.051 206.262 -357.665 220.31 -368.664C234.358 -379.662 291.996 -306.043 306.037 -317.035C320.078 -328.028 262.447 -401.654 276.496 -412.652C290.544 -423.651 348.182 -350.031 362.231 -361.03C376.279 -372.029 318.641 -445.649 332.682 -456.641" stroke="#A1D634" stroke-opacity="0.08" stroke-width="0.592857" stroke-miterlimit="10"/>
<path d="M-358.398 512.566C-344.357 501.573 -286.719 575.193 -272.671 564.194C-258.622 553.195 -316.268 479.581 -302.22 468.583C-288.171 457.584 -230.541 531.21 -216.492 520.211C-202.444 509.212 -260.09 435.598 -246.041 424.6C-231.993 413.601 -174.362 487.227 -160.314 476.228C-146.265 465.23 -203.911 391.616 -189.863 380.617C-175.814 369.618 -118.184 443.244 -104.135 432.245C-90.0871 421.247 -147.733 347.633 -133.692 336.64C-119.651 325.647 -62.0054 399.261 -47.9345 388.245C-33.8635 377.228 -91.5317 303.632 -77.4909 292.639C-63.4501 281.646 -5.79692 355.255 8.21382 344.285C22.2246 333.316 -35.3834 259.673 -21.2975 248.645C-7.21147 237.616 50.3815 311.272 64.4223 300.279C78.4632 289.286 20.8326 215.66 34.8734 204.668C48.9143 193.675 106.552 267.295 120.601 256.296C134.649 245.297 77.0034 171.683 91.0443 160.691C105.085 149.698 162.731 223.312 176.779 212.313C190.827 201.314 133.182 127.7 147.23 116.702C161.279 105.703 218.909 179.329 232.958 168.33C247.006 157.332 189.36 83.7176 203.409 72.7189C217.457 61.7202 275.088 135.346 289.136 124.347C303.184 113.349 245.539 39.7347 259.587 28.736C273.635 17.7373 331.266 91.3631 345.314 80.3645C359.363 69.3658 301.725 -4.25412 315.765 -15.2469C329.806 -26.2397 387.452 47.3743 401.493 36.3815C415.534 25.3888 357.903 -48.237 371.944 -59.2298C385.985 -70.2226 443.63 3.39143 457.679 -7.60724C471.727 -18.6059 414.081 -92.2199 428.13 -103.219C442.178 -114.217 499.816 -40.5973 513.857 -51.5901C527.898 -62.5829 470.267 -136.209 484.316 -147.207C498.364 -158.206 556.002 -84.5862 570.051 -95.5848C584.099 -106.584 526.461 -180.203 540.502 -191.196" stroke="#A1D634" stroke-opacity="0.08" stroke-width="0.592857" stroke-miterlimit="10"/>
<path d="M-61.0576 892.351C-47.0168 881.358 10.6213 954.978 24.6697 943.979C38.718 932.98 -18.9276 859.366 -4.87922 848.368C9.16915 837.369 66.7997 910.995 80.8481 899.996C94.8964 888.997 37.2508 815.383 51.2992 804.385C65.3475 793.386 122.978 867.012 137.026 856.013C151.075 845.015 93.4292 771.401 107.478 760.402C121.526 749.403 179.157 823.029 193.205 812.03C207.253 801.032 149.608 727.418 163.648 716.425C177.689 705.432 235.335 779.046 249.406 768.03C263.477 757.013 205.809 683.417 219.849 672.424C233.89 661.432 291.543 735.04 305.554 724.07C319.565 713.101 261.957 639.458 276.043 628.43C290.129 617.402 347.722 691.057 361.763 680.064C375.803 669.071 318.173 595.445 332.214 584.453C346.255 573.46 403.893 647.08 417.941 636.081C431.989 625.082 374.344 551.468 388.385 540.476C402.425 529.483 460.071 603.097 474.119 592.098C488.168 581.099 430.522 507.486 444.571 496.487C458.619 485.488 516.249 559.114 530.298 548.115C544.346 537.117 486.701 463.503 500.749 452.504C514.797 441.505 572.428 515.131 586.476 504.132C600.525 493.134 542.879 419.52 556.927 408.521C570.976 397.522 628.606 471.148 642.655 460.149C656.703 449.151 599.065 375.531 613.106 364.538C627.147 353.545 684.792 427.159 698.833 416.167C712.874 405.174 655.243 331.548 669.284 320.555C683.325 309.562 740.971 383.176 755.019 372.178C769.067 361.179 711.422 287.565 725.47 276.566C739.518 265.568 797.157 339.188 811.197 328.195C825.238 317.202 767.608 243.576 781.656 232.578C795.704 221.579 853.342 295.199 867.391 284.2C881.439 273.202 823.801 199.582 837.842 188.589" stroke="#A1D634" stroke-opacity="0.08" stroke-width="0.592857" stroke-miterlimit="10"/>
<path d="M-447.916 398.226C-433.875 387.233 -376.237 460.853 -362.189 449.854C-348.14 438.856 -405.786 365.242 -391.738 354.243C-377.689 343.244 -320.059 416.87 -306.01 405.871C-291.962 394.873 -349.608 321.259 -335.559 310.26C-321.511 299.261 -263.88 372.887 -249.832 361.888C-235.784 350.89 -293.429 277.276 -279.381 266.277C-265.332 255.278 -207.702 328.904 -193.654 317.905C-179.605 306.907 -237.251 233.293 -223.21 222.3C-209.169 211.307 -151.523 284.921 -137.453 273.905C-123.382 262.889 -181.05 189.292 -167.009 178.299C-152.968 167.307 -95.315 240.915 -81.3043 229.946C-67.2935 218.976 -124.902 145.333 -110.816 134.305C-96.7295 123.277 -39.1366 196.932 -25.0957 185.939C-11.0549 174.946 -68.6855 101.321 -54.6446 90.3278C-40.6038 79.335 17.0343 152.955 31.0826 141.956C45.131 130.958 -12.5146 57.3436 1.52622 46.3508C15.5671 35.358 73.2127 108.972 87.2611 97.9733C101.309 86.9746 43.6638 13.3607 57.7121 2.36201C71.7605 -8.63666 129.391 64.9891 143.439 53.9904C157.488 42.9918 99.8422 -30.6222 113.891 -41.6209C127.939 -52.6196 185.569 21.0062 199.618 10.0076C213.666 -0.991114 156.021 -74.6052 170.069 -85.6038C184.117 -96.6025 241.748 -22.9767 255.796 -33.9754C269.845 -44.974 212.207 -118.594 226.247 -129.587C240.288 -140.579 297.934 -66.9655 311.975 -77.9583C326.016 -88.9511 268.385 -162.577 282.426 -173.57C296.467 -184.562 354.112 -110.948 368.161 -121.947C382.209 -132.946 324.563 -206.56 338.612 -217.558C352.66 -228.557 410.298 -154.937 424.339 -165.93C438.38 -176.923 380.749 -250.548 394.798 -261.547C408.846 -272.546 466.484 -198.926 480.532 -209.925C494.581 -220.923 436.943 -294.543 450.984 -305.536" stroke="#A1D634" stroke-opacity="0.08" stroke-width="0.592857" stroke-miterlimit="10"/>
<path d="M-150.577 778.01C-136.536 767.017 -78.8982 840.637 -64.8499 829.639C-50.8015 818.64 -108.447 745.026 -94.3987 734.027C-80.3504 723.029 -22.7198 796.654 -8.67146 785.656C5.3769 774.657 -52.2687 701.043 -38.2203 690.044C-24.172 679.046 33.4586 752.672 47.5069 741.673C61.5553 730.674 3.90968 657.06 17.958 646.062C32.0064 635.063 89.637 708.689 103.685 697.69C117.734 686.691 60.0881 613.077 74.1289 602.085C88.1698 591.092 145.815 664.706 159.886 653.689C173.957 642.673 116.289 569.077 130.33 558.084C144.371 547.091 202.024 620.699 216.035 609.73C230.045 598.761 172.437 525.117 186.523 514.089C200.609 503.061 258.202 576.716 272.243 565.724C286.284 554.731 228.653 481.105 242.694 470.112C256.735 459.12 314.373 532.739 328.422 521.741C342.47 510.742 284.824 437.128 298.865 426.135C312.906 415.143 370.552 488.757 384.6 477.758C398.648 466.759 341.003 393.145 355.051 382.147C369.099 371.148 426.73 444.774 440.778 433.775C454.827 422.776 397.181 349.162 411.229 338.164C425.278 327.165 482.908 400.791 496.957 389.792C511.005 378.793 453.359 305.179 467.408 294.181C481.456 283.182 539.087 356.808 553.135 345.809C567.183 334.81 509.545 261.191 523.586 250.198C537.627 239.205 595.273 312.819 609.314 301.826C623.354 290.833 565.724 217.208 579.765 206.215C593.805 195.222 651.451 268.836 665.499 257.837C679.548 246.839 621.902 173.225 635.951 162.226C649.999 151.227 707.637 224.847 721.678 213.855C735.719 202.862 678.088 129.236 692.136 118.237C706.185 107.239 763.823 180.859 777.871 169.86C791.92 158.861 734.282 85.2413 748.322 74.2486" stroke="#A1D634" stroke-opacity="0.08" stroke-width="0.592857" stroke-miterlimit="10"/>
<path d="M-240.096 663.67C-226.055 652.678 -168.417 726.298 -154.368 715.299C-140.32 704.3 -197.966 630.686 -183.917 619.688C-169.869 608.689 -112.238 682.315 -98.19 671.316C-84.1417 660.317 -141.787 586.703 -127.739 575.705C-113.691 564.706 -56.06 638.332 -42.0116 627.333C-27.9633 616.334 -85.6089 542.72 -71.5605 531.722C-57.5121 520.723 0.118428 594.349 14.1668 583.35C28.2152 572.351 -29.4305 498.737 -15.3896 487.745C-1.34879 476.752 56.2968 550.366 70.3678 539.35C84.4387 528.333 26.7705 454.737 40.8113 443.744C54.8522 432.751 112.505 506.359 126.516 495.39C140.527 484.421 82.9188 410.778 97.0048 399.749C111.091 388.721 168.684 462.377 182.725 451.384C196.765 440.391 139.135 366.765 153.176 355.772C167.217 344.78 224.855 418.4 238.903 407.401C252.951 396.402 195.306 322.788 209.347 311.795C223.387 300.803 281.033 374.417 295.081 363.418C309.13 352.419 251.484 278.805 265.532 267.807C279.581 256.808 337.211 330.434 351.26 319.435C365.308 308.436 307.663 234.822 321.711 223.824C335.759 212.825 393.39 286.451 407.438 275.452C421.486 264.454 363.841 190.84 377.889 179.841C391.938 168.842 449.568 242.468 463.617 231.469C477.665 220.471 420.027 146.851 434.068 135.858C448.109 124.865 505.754 198.479 519.795 187.486C533.836 176.494 476.205 102.868 490.246 91.8751C504.287 80.8823 561.933 154.496 575.981 143.498C590.029 132.499 532.384 58.8849 546.432 47.8863C560.48 36.8876 618.118 110.508 632.159 99.5147C646.2 88.522 588.57 14.8962 602.618 3.89752C616.666 -7.10115 674.304 66.5187 688.353 55.52C702.401 44.5214 644.763 -29.0985 658.804 -40.0913" stroke="#A1D634" stroke-opacity="0.08" stroke-width="0.592857" stroke-miterlimit="10"/>
<path d="M57.2441 1043.46C71.285 1032.46 128.923 1106.08 142.971 1095.08C157.02 1084.09 99.3742 1010.47 113.423 999.473C127.471 988.474 185.101 1062.1 199.15 1051.1C213.198 1040.1 155.553 966.489 169.601 955.49C183.649 944.491 241.28 1018.12 255.328 1007.12C269.377 996.12 211.731 922.506 225.779 911.507C239.828 900.508 297.458 974.134 311.507 963.136C325.555 952.137 267.909 878.523 281.95 867.53C295.991 856.537 353.637 930.151 367.708 919.135C381.779 908.119 324.11 834.522 338.151 823.53C352.192 812.537 409.845 886.145 423.856 875.176C437.867 864.206 380.259 790.563 394.345 779.535C408.431 768.507 466.024 842.162 480.064 831.169C494.105 820.176 436.475 746.551 450.516 735.558C464.556 724.565 522.194 798.185 536.243 787.186C550.291 776.188 492.646 702.574 506.686 691.581C520.727 680.588 578.373 754.202 592.421 743.203C606.47 732.205 548.824 658.591 562.872 647.592C576.921 636.593 634.551 710.219 648.6 699.221C662.648 688.222 605.002 614.608 619.051 603.609C633.099 592.61 690.73 666.236 704.778 655.238C718.826 644.239 661.181 570.625 675.229 559.626C689.277 548.628 746.908 622.253 760.956 611.255C775.005 600.256 717.367 526.636 731.408 515.643C745.448 504.651 803.094 578.265 817.135 567.272C831.176 556.279 773.545 482.653 787.586 471.66C801.627 460.668 859.272 534.282 873.321 523.283C887.369 512.284 829.723 438.67 843.772 427.672C857.82 416.673 915.458 490.293 929.499 479.3C943.54 468.307 885.909 394.682 899.958 383.683C914.006 372.684 971.644 446.304 985.693 435.305C999.741 424.307 942.103 350.687 956.144 339.694" stroke="#A1D634" stroke-opacity="0.08" stroke-width="0.592857" stroke-miterlimit="10"/>
<path d="M-508.581 320.74C-494.54 309.747 -436.902 383.367 -422.853 372.369C-408.805 361.37 -466.451 287.756 -452.402 276.757C-438.354 265.759 -380.723 339.384 -366.675 328.386C-352.627 317.387 -410.272 243.773 -396.224 232.774C-382.175 221.776 -324.545 295.402 -310.496 284.403C-296.448 273.404 -354.094 199.79 -340.045 188.792C-325.997 177.793 -268.366 251.419 -254.318 240.42C-240.27 229.421 -297.915 155.807 -283.874 144.815C-269.834 133.822 -212.188 207.436 -198.117 196.419C-184.046 185.403 -241.714 111.807 -227.674 100.814C-213.633 89.8212 -155.98 163.429 -141.969 152.46C-127.958 141.491 -185.566 67.8474 -171.48 56.8193C-157.394 45.7912 -99.8011 119.446 -85.7603 108.454C-71.7195 97.4608 -129.35 23.835 -115.309 12.8423C-101.268 1.84949 -43.6303 75.4694 -29.5819 64.4707C-15.5336 53.4721 -73.1792 -20.1419 -59.1383 -31.1347C-45.0975 -42.1275 12.5481 31.4865 26.5965 20.4878C40.6449 9.48915 -17.0008 -64.1248 -2.95242 -75.1235C11.0959 -86.1222 68.7265 -12.4964 82.7749 -23.4951C96.8232 -34.4937 39.1776 -108.108 53.226 -119.106C67.2744 -130.105 124.905 -56.4793 138.953 -67.4779C153.002 -78.4766 95.3561 -152.091 109.404 -163.089C123.453 -174.088 181.083 -100.462 195.132 -111.461C209.18 -122.46 151.542 -196.079 165.583 -207.072C179.624 -218.065 237.269 -144.451 251.31 -155.444C265.351 -166.437 207.72 -240.062 221.761 -251.055C235.802 -262.048 293.448 -188.434 307.496 -199.433C321.544 -210.431 263.899 -284.045 277.947 -295.044C291.996 -306.043 349.634 -232.423 363.674 -243.415C377.715 -254.408 320.085 -328.034 334.133 -339.033C348.181 -350.031 405.82 -276.411 419.868 -287.41C433.916 -298.409 376.278 -372.029 390.319 -383.021" stroke="#A1D634" stroke-opacity="0.08" stroke-width="0.592857" stroke-miterlimit="10"/>
<path d="M-300.759 586.186C-286.718 575.193 -229.08 648.813 -215.032 637.814C-200.984 626.815 -258.629 553.201 -244.581 542.203C-230.533 531.204 -172.902 604.83 -158.854 593.831C-144.805 582.832 -202.451 509.218 -188.402 498.22C-174.354 487.221 -116.724 560.847 -102.675 549.848C-88.6268 538.85 -146.272 465.236 -132.224 454.237C-118.176 443.238 -60.5451 516.864 -46.4968 505.865C-32.4484 494.867 -90.094 421.253 -76.0532 410.26C-62.0124 399.267 -4.36675 472.881 9.70419 461.865C23.7751 450.848 -33.8931 377.252 -19.8522 366.259C-5.81139 355.266 51.8417 428.875 65.8525 417.905C79.8632 406.936 22.2552 333.293 36.3412 322.265C50.4272 311.236 108.02 384.892 122.061 373.899C136.102 362.906 78.4713 289.28 92.5121 278.288C106.553 267.295 164.191 340.915 178.239 329.916C192.288 318.917 134.642 245.303 148.683 234.311C162.724 223.318 220.369 296.932 234.418 285.933C248.466 274.934 190.821 201.32 204.869 190.322C218.917 179.323 276.548 252.949 290.596 241.95C304.645 230.952 246.999 157.338 261.047 146.339C275.096 135.34 332.726 208.966 346.775 197.967C360.823 186.969 303.177 113.355 317.226 102.356C331.274 91.3573 388.905 164.983 402.953 153.984C417.001 142.986 359.363 69.3659 373.404 58.3731C387.445 47.3803 445.091 120.994 459.131 110.002C473.172 99.0088 415.542 25.383 429.582 14.3902C443.623 3.39744 501.269 77.0114 515.317 66.0128C529.366 55.0141 471.72 -18.5999 485.768 -29.5986C499.817 -40.5973 557.455 33.0226 571.496 22.0299C585.537 11.0371 527.906 -62.5887 541.954 -73.5873C556.003 -84.586 613.641 -10.9662 627.689 -21.9648C641.738 -32.9635 584.099 -106.583 598.14 -117.576" stroke="#A1D634" stroke-opacity="0.08" stroke-width="0.592857" stroke-miterlimit="10"/>
<path d="M-3.41943 965.97C10.6214 954.977 68.2595 1028.6 82.3079 1017.6C96.3562 1006.6 38.7106 932.986 52.759 921.987C66.8073 910.989 124.438 984.614 138.486 973.616C152.535 962.617 94.889 889.003 108.937 878.004C122.986 867.006 180.616 940.632 194.665 929.633C208.713 918.634 151.067 845.02 165.116 834.022C179.164 823.023 236.795 896.649 250.843 885.65C264.891 874.651 207.246 801.037 221.287 790.045C235.327 779.052 292.973 852.666 307.044 841.649C321.115 830.633 263.447 757.037 277.488 746.044C291.528 735.051 349.182 808.659 363.192 797.69C377.203 786.721 319.595 713.077 333.681 702.049C347.767 691.021 405.36 764.676 419.401 753.684C433.442 742.691 375.811 669.065 389.852 658.072C403.893 647.079 461.531 720.699 475.579 709.701C489.628 698.702 431.982 625.088 446.023 614.095C460.064 603.102 517.709 676.716 531.758 665.718C545.806 654.719 488.16 581.105 502.209 570.106C516.257 559.108 573.888 632.734 587.936 621.735C601.984 610.736 544.339 537.122 558.387 526.124C572.435 515.125 630.066 588.751 644.114 577.752C658.163 566.753 600.517 493.139 614.566 482.141C628.614 471.142 686.244 544.768 700.293 533.769C714.341 522.77 656.703 449.151 670.744 438.158C684.785 427.165 742.43 500.779 756.471 489.786C770.512 478.793 712.881 405.168 726.922 394.175C740.963 383.182 798.609 456.796 812.657 445.797C826.706 434.799 769.06 361.185 783.108 350.186C797.157 339.187 854.795 412.807 868.836 401.815C882.876 390.822 825.246 317.196 839.294 306.197C853.343 295.199 910.981 368.818 925.029 357.82C939.077 346.821 881.439 273.201 895.48 262.209" stroke="#A1D634" stroke-opacity="0.08" stroke-width="0.592857" stroke-miterlimit="10"/>
<path d="M-390.277 471.845C-376.237 460.853 -318.598 534.473 -304.55 523.474C-290.502 512.475 -348.147 438.861 -334.099 427.863C-320.051 416.864 -262.42 490.49 -248.372 479.491C-234.323 468.492 -291.969 394.878 -277.921 383.88C-263.872 372.881 -206.242 446.507 -192.193 435.508C-178.145 424.509 -235.791 350.895 -221.742 339.897C-207.694 328.898 -150.063 402.524 -136.015 391.525C-121.966 380.527 -179.612 306.913 -165.571 295.92C-151.53 284.927 -93.8848 358.541 -79.8139 347.525C-65.7429 336.508 -123.411 262.912 -109.37 251.919C-95.3295 240.926 -37.6763 314.535 -23.6656 303.565C-9.65484 292.596 -67.2628 218.953 -53.1769 207.925C-39.0909 196.896 18.5021 270.552 32.5429 259.559C46.5838 248.566 -11.0468 174.94 2.99404 163.947C17.0349 152.955 74.6729 226.575 88.7213 215.576C102.77 204.577 45.1241 130.963 59.1649 119.971C73.2057 108.978 130.851 182.592 144.9 171.593C158.948 160.594 101.302 86.9804 115.351 75.9817C129.399 64.9831 187.03 138.609 201.078 127.61C215.126 116.611 157.481 42.9975 171.529 31.9988C185.578 21.0001 243.208 94.6259 257.256 83.6273C271.305 72.6286 213.659 -0.985438 227.708 -11.9841C241.756 -22.9828 299.387 50.643 313.435 39.6444C327.483 28.6457 269.845 -44.9742 283.886 -55.967C297.927 -66.9598 355.573 6.65422 369.613 -4.33856C383.654 -15.3313 326.024 -88.9571 340.064 -99.9499C354.105 -110.943 411.751 -37.3287 425.799 -48.3273C439.848 -59.326 382.202 -132.94 396.25 -143.939C410.299 -154.937 467.937 -81.3174 481.978 -92.3102C496.018 -103.303 438.388 -176.929 452.436 -187.927C466.485 -198.926 524.123 -125.306 538.171 -136.305C552.219 -147.304 494.581 -220.923 508.622 -231.916" stroke="#A1D634" stroke-opacity="0.08" stroke-width="0.592857" stroke-miterlimit="10"/>
<path d="M-92.9385 851.631C-78.8976 840.638 -21.2596 914.258 -7.21119 903.259C6.83717 892.261 -50.8084 818.647 -36.7601 807.648C-22.7117 796.649 34.9189 870.275 48.9672 859.277C63.0156 848.278 5.36997 774.664 19.4183 763.665C33.4667 752.667 91.0973 826.292 105.146 815.294C119.194 804.295 61.5484 730.681 75.5967 719.682C89.6451 708.684 147.276 782.309 161.324 771.311C175.372 760.312 117.727 686.698 131.768 675.705C145.808 664.713 203.454 738.327 217.525 727.31C231.596 716.294 173.928 642.697 187.969 631.705C202.009 620.712 259.663 694.32 273.673 683.351C287.684 672.382 230.076 598.738 244.162 587.71C258.248 576.682 315.841 650.337 329.882 639.344C343.923 628.352 286.292 554.726 300.333 543.733C314.374 532.74 372.012 606.36 386.06 595.361C400.109 584.363 342.463 510.749 356.504 499.756C370.545 488.763 428.19 562.377 442.239 551.379C456.287 540.38 398.641 466.766 412.69 455.767C426.738 444.769 484.369 518.394 498.417 507.396C512.465 496.397 454.82 422.783 468.868 411.784C482.916 400.786 540.547 474.411 554.595 463.413C568.644 452.414 510.998 378.8 525.047 367.801C539.095 356.803 596.725 430.429 610.774 419.43C624.822 408.431 567.184 334.811 581.225 323.819C595.266 312.826 652.911 386.44 666.952 375.447C680.993 364.454 623.362 290.828 637.403 279.836C651.444 268.843 709.09 342.457 723.138 331.458C737.186 320.46 679.541 246.846 693.589 235.847C707.638 224.848 765.276 298.468 779.316 287.475C793.357 276.483 735.727 202.857 749.775 191.858C763.823 180.859 821.462 254.479 835.51 243.481C849.558 232.482 791.92 158.862 805.961 147.869" stroke="#A1D634" stroke-opacity="0.08" stroke-width="0.592857" stroke-miterlimit="10"/>
<path d="M-182.457 737.29C-168.416 726.297 -110.778 799.917 -96.7293 788.919C-82.6809 777.92 -140.327 704.306 -126.278 693.307C-112.23 682.309 -54.5992 755.934 -40.5509 744.936C-26.5025 733.937 -84.1481 660.323 -70.0997 649.324C-56.0514 638.326 1.57919 711.951 15.6275 700.953C29.6759 689.954 -27.9697 616.34 -13.9213 605.341C0.127013 594.343 57.7576 667.969 71.8059 656.97C85.8543 645.971 28.2087 572.357 42.2495 561.364C56.2904 550.372 113.936 623.986 128.007 612.969C142.078 601.953 84.4097 528.357 98.4505 517.364C112.491 506.371 170.144 579.979 184.155 569.01C198.166 558.041 140.558 484.397 154.644 473.369C168.73 462.341 226.323 535.996 240.364 525.004C254.405 514.011 196.774 440.385 210.815 429.392C224.856 418.399 282.494 492.019 296.542 481.021C310.59 470.022 252.945 396.408 266.986 385.415C281.027 374.422 338.672 448.036 352.721 437.038C366.769 426.039 309.123 352.425 323.172 341.426C337.22 330.428 394.851 404.054 408.899 393.055C422.947 382.056 365.302 308.442 379.35 297.444C393.398 286.445 451.029 360.071 465.077 349.072C479.126 338.073 421.48 264.459 435.528 253.461C449.577 242.462 507.207 316.088 521.256 305.089C535.304 294.09 477.666 220.47 491.707 209.478C505.748 198.485 563.393 272.099 577.434 261.106C591.475 250.113 533.844 176.488 547.885 165.495C561.926 154.502 619.572 228.116 633.62 217.117C647.668 206.119 590.023 132.505 604.071 121.506C618.12 110.507 675.758 184.127 689.798 173.134C703.839 162.142 646.209 88.5159 660.257 77.5173C674.305 66.5186 731.944 140.138 745.992 129.14C760.04 118.141 702.402 44.5212 716.443 33.5285" stroke="#A1D634" stroke-opacity="0.08" stroke-width="0.592857" stroke-miterlimit="10"/>
<path d="M114.882 1117.08C128.923 1106.08 186.561 1179.7 200.61 1168.7C214.658 1157.71 157.012 1084.09 171.061 1073.09C185.109 1062.09 242.74 1135.72 256.788 1124.72C270.836 1113.72 213.191 1040.11 227.239 1029.11C241.287 1018.11 298.918 1091.74 312.966 1080.74C327.015 1069.74 269.369 996.127 283.418 985.128C297.466 974.129 355.096 1047.75 369.145 1036.76C383.193 1025.76 325.548 952.144 339.588 941.151C353.629 930.158 411.275 1003.77 425.346 992.756C439.417 981.739 381.749 908.143 395.789 897.15C409.83 886.157 467.483 959.766 481.494 948.796C495.505 937.827 437.897 864.184 451.983 853.156C466.069 842.127 523.662 915.783 537.703 904.79C551.743 893.797 494.113 820.171 508.154 809.179C522.195 798.186 579.833 871.806 593.881 860.807C607.929 849.808 550.284 776.194 564.325 765.202C578.365 754.209 636.011 827.823 650.059 816.824C664.108 805.825 606.462 732.211 620.51 721.213C634.559 710.214 692.189 783.84 706.238 772.841C720.286 761.843 662.641 688.229 676.689 677.23C690.737 666.231 748.368 739.857 762.416 728.858C776.465 717.86 718.819 644.246 732.867 633.247C746.916 622.248 804.546 695.874 818.595 684.875C832.643 673.877 775.005 600.257 789.046 589.264C803.087 578.271 860.732 651.885 874.773 640.893C888.814 629.9 831.183 556.274 845.224 545.281C859.265 534.288 916.911 607.902 930.959 596.904C945.007 585.905 887.362 512.291 901.41 501.292C915.458 490.294 973.096 563.914 987.137 552.921C1001.18 541.928 943.548 468.302 957.596 457.304C971.644 446.305 1029.28 519.925 1043.33 508.926C1057.38 497.927 999.741 424.308 1013.78 413.315" stroke="#A1D634" stroke-opacity="0.08" stroke-width="0.592857" stroke-miterlimit="10"/>
</g>
<defs>
<clipPath id="clip0_6746_7430">
<rect width="757.671" height="739.886" fill="white" transform="translate(-96 -2.81436)"/>
</clipPath>
</defs>
</svg>
